<svg xmlns="http://www.w3.org/2000/svg" width="1224" height="562" fill="none" viewBox="0 0 1224 562"><defs/><path fill="#4CDD74" fill-opacity=".25" d="M832.1 365.26c258.21-2.5 443.8-55.38 586.05-171.74l-20.4-145.76c12.72 90.87-146.27-27.98-598.27 84.47C347.48 244.67-267 234.17-267 234.17l29.35 209.64c276.28-68.53 811.53-76.04 1069.74-78.55z"/><path fill="#A9F2BD" fill-opacity=".36" d="M342.77 61.26C125.3 10.06-34.45 60.07-161.97 227.3l7.39 252.15c-4.61-157.2 121.23 78.98 509.18-15.06s904.38 55.82 904.38 55.82l-10.63-362.66c-237.12 57.14-688.1-45.08-905.57-96.29z"/></svg>