<svg width="129" height="131" viewBox="0 0 129 131" fill="none" xmlns="http://www.w3.org/2000/svg">
<g clip-path="url(#clip0)">
<path d="M9.00302 128.715L15.1785 118.916L9.00016 129.782L8.99685 130.899C8.55628 130.894 8.12017 130.877 7.6885 130.848L8.19219 116.505L8.18556 116.394L8.19692 116.373L8.24487 115.017L1.78789 104.277L8.25154 114.002L8.27087 114.289L8.65137 103.452L3.10041 92.3404L8.69476 101.548L8.95498 79.0857L8.95617 79.0109L8.95706 79.0845L9.08378 96.7945L14.388 89.7085L9.07908 98.3199L9.05445 108.02L13.976 98.6516L9.05175 109.446L9.03812 114.84L16.1871 101.796L9.03248 116.721L9.00302 128.715Z" fill="#E2E2E2"/>
<path d="M83.2363 70.1346V105.394H69.5231V69.6449L72.7064 69.7586V62.5441H75.0154L75.3959 46.5656C74.4641 45.9586 73.8084 44.5168 73.8084 42.8332C73.8074 42.3499 73.8636 41.8682 73.976 41.3981C73.5351 40.921 73.2648 40.3112 73.2076 39.6641C73.1504 39.017 73.3094 38.3692 73.6598 37.8222C73.3668 38.0782 73.0259 38.2735 72.6568 38.3967C72.2877 38.5199 71.8978 38.5685 71.5098 38.5398C71.1217 38.5111 70.7433 38.4057 70.3963 38.2295C70.0494 38.0534 69.7408 37.8101 69.4887 37.5138C69.2365 37.2175 69.0458 36.874 68.9274 36.5034C68.8091 36.1327 68.7656 35.7423 68.7994 35.3547C68.8332 34.9671 68.9437 34.5901 69.1244 34.2455C69.3051 33.901 69.5525 33.5957 69.8521 33.3475C69.3483 33.1616 68.905 32.8412 68.5705 32.4211C68.236 32.001 68.023 31.4973 67.9547 30.9646C67.8863 30.432 67.9653 29.8908 68.1829 29.3999C68.4006 28.9089 68.7486 28.487 69.1892 28.18C69.6298 27.8729 70.1462 27.6925 70.6821 27.6582C71.2181 27.6239 71.7532 27.7372 72.2293 27.9857C72.7054 28.2341 73.1043 28.6083 73.3827 29.0675C73.6611 29.5267 73.8083 30.0534 73.8084 30.5904C73.8084 30.6335 73.807 30.6762 73.8052 30.7187C74.2087 30.5955 74.634 30.5605 75.0522 30.6161C75.4704 30.6718 75.8717 30.8168 76.2289 31.0413C76.5861 31.2657 76.8908 31.5644 77.1223 31.9171C77.3538 32.2697 77.5068 32.668 77.5707 33.085C77.9372 32.867 78.3467 32.7313 78.7708 32.6874C79.195 32.6436 79.6236 32.6925 80.0269 32.8309C80.4303 32.9693 80.7987 33.1938 81.1065 33.4888C81.4144 33.7838 81.6544 34.1423 81.8098 34.5393C81.9652 34.9364 82.0323 35.3625 82.0065 35.7881C81.9806 36.2137 81.8625 36.6286 81.6602 37.0039C81.4579 37.3793 81.1764 37.7061 80.8351 37.9618C80.4938 38.2174 80.101 38.3957 79.6839 38.4843C79.6845 38.5057 79.6856 38.5268 79.6856 38.5483C79.4126 39.3718 79.0653 40.1688 78.6477 40.9292C78.8518 41.5431 78.9542 42.1863 78.9508 42.8332C78.9508 44.5167 78.2952 45.9586 77.3635 46.5656L77.744 62.5441H80.0528V70.0209L83.2363 70.1346ZM74.6731 36.4668L74.6656 36.467C74.6231 36.467 74.5811 36.4656 74.5391 36.4638C74.5127 36.5506 74.4824 36.6357 74.4483 36.7189C74.5184 36.6306 74.5934 36.5465 74.6731 36.4668Z" fill="#E2E2E2"/>
<path d="M90.7867 130.491H49.1572L49.1572 82.3365H90.7867V130.491Z" fill="#859CAE"/>
<path d="M75.5838 130.491H64.3602V120.697H75.5838V130.491Z" fill="#E2E2E2"/>
<path d="M104.66 18.9757C104.661 19.0112 104.663 19.0465 104.663 19.0822C104.664 19.7371 104.533 20.3854 104.278 20.9886C104.022 21.5918 103.649 22.1375 103.178 22.5932C103.105 22.7498 103.023 22.9025 102.933 23.0505C103.274 24.0737 103.444 25.1456 103.439 26.2238C103.439 29.9427 101.52 32.9574 99.1534 32.9574C96.7866 32.9574 94.868 29.9427 94.868 26.2238C94.8662 25.4183 94.96 24.6154 95.1473 23.8319C94.4124 23.0368 93.962 22.0204 93.8667 20.9419C93.7713 19.8635 94.0364 18.7838 94.6203 17.8721C94.132 18.2988 93.5637 18.6242 92.9486 18.8295C92.3335 19.0347 91.6837 19.1158 91.037 19.068C90.3903 19.0202 89.7595 18.8444 89.1813 18.5508C88.6031 18.2572 88.0889 17.8518 87.6687 17.3579C87.2485 16.8641 86.9305 16.2917 86.7333 15.674C86.5361 15.0563 86.4636 14.4055 86.5199 13.7596C86.5762 13.1136 86.7603 12.4853 87.0615 11.911C87.3626 11.3367 87.7749 10.828 88.2742 10.4144C87.4345 10.1045 86.6957 9.57046 86.1382 8.87028C85.5806 8.17009 85.2256 7.33053 85.1118 6.44279C84.9979 5.55505 85.1295 4.65308 85.4922 3.83486C85.855 3.01664 86.435 2.31346 87.1694 1.8017C87.9037 1.28995 88.7643 0.989188 89.6575 0.932095C90.5508 0.875002 91.4426 1.06376 92.2362 1.47786C93.0297 1.89196 93.6946 2.51558 94.1586 3.28095C94.6226 4.04633 94.8679 4.92422 94.868 5.81923C94.868 5.89093 94.8656 5.96206 94.8626 6.033C95.5351 5.8276 96.2439 5.7693 96.9409 5.86206C97.6379 5.95481 98.3067 6.19645 98.902 6.57056C99.4974 6.94466 100.005 7.44249 100.391 8.03022C100.777 8.61795 101.032 9.28183 101.138 9.97678C101.749 9.61342 102.432 9.38732 103.139 9.31418C103.846 9.24104 104.56 9.32262 105.232 9.55324C105.904 9.78387 106.518 10.158 107.032 10.6497C107.545 11.1414 107.945 11.7389 108.204 12.4007C108.463 13.0624 108.574 13.7726 108.531 14.482C108.488 15.1913 108.291 15.8828 107.954 16.5084C107.617 17.1339 107.148 17.6787 106.579 18.1048C106.01 18.5308 105.356 18.828 104.66 18.9757ZM96.2965 15.6134C96.2258 15.6134 96.1557 15.6111 96.0857 15.6081C96.0418 15.7529 95.9914 15.8946 95.9345 16.0332C96.0512 15.8861 96.1763 15.7459 96.3091 15.6131L96.2965 15.6134Z" fill="#E2E2E2"/>
<path d="M101.603 66.421H96.7047L96.8797 59.0759V59.0731L97.5207 32.1401C98.0124 32.4406 98.5775 32.5996 99.1538 32.5996C99.7301 32.5996 100.295 32.4406 100.787 32.1401L101.428 59.0731V59.0759L101.603 66.421Z" fill="#24456F"/>
<path d="M110.581 71.7251V130.491H87.727V70.9093L93.0319 71.0984V59.0759H105.276V71.536L110.581 71.7251Z" fill="#24456F"/>
<path d="M46.2976 18.9757C46.2984 19.0112 46.3003 19.0465 46.3003 19.0822C46.301 19.7371 46.1698 20.3854 45.9147 20.9886C45.6596 21.5918 45.2857 22.1375 44.8153 22.5932C44.7419 22.7498 44.6602 22.9025 44.5705 23.0505C44.9109 24.0737 45.0816 25.1456 45.0759 26.2238C45.0759 29.9427 43.1573 32.9574 40.7905 32.9574C38.4237 32.9574 36.5051 29.9427 36.5051 26.2238C36.5034 25.4183 36.5971 24.6154 36.7844 23.8319C36.0495 23.0368 35.5992 22.0204 35.5038 20.9419C35.4084 19.8635 35.6735 18.7838 36.2574 17.8721C35.7691 18.2988 35.2008 18.6242 34.5857 18.8295C33.9706 19.0348 33.3208 19.1159 32.6741 19.068C32.0274 19.0202 31.3966 18.8444 30.8184 18.5509C30.2401 18.2573 29.726 17.8518 29.3057 17.358C28.8855 16.8641 28.5675 16.2917 28.3703 15.674C28.1731 15.0563 28.1006 14.4056 28.1569 13.7596C28.2133 13.1136 28.3974 12.4853 28.6985 11.911C28.9997 11.3367 29.4119 10.828 29.9113 10.4144C29.0716 10.1045 28.3328 9.57046 27.7753 8.87028C27.2177 8.17009 26.8627 7.33053 26.7488 6.44279C26.635 5.55505 26.7666 4.65308 27.1293 3.83486C27.4921 3.01664 28.0721 2.31346 28.8065 1.8017C29.5408 1.28995 30.4014 0.989188 31.2946 0.932095C32.1879 0.875002 33.0798 1.06376 33.8733 1.47786C34.6668 1.89196 35.3317 2.51558 35.7957 3.28095C36.2597 4.04633 36.505 4.92422 36.5051 5.81923C36.5051 5.89093 36.5027 5.96206 36.4997 6.033C37.1722 5.8276 37.881 5.7693 38.578 5.86206C39.275 5.95481 39.9438 6.19645 40.5392 6.57056C41.1345 6.94466 41.6423 7.44249 42.0282 8.03022C42.4141 8.61795 42.669 9.28183 42.7756 9.97678C43.3863 9.61342 44.0689 9.38732 44.7758 9.31418C45.4827 9.24104 46.1971 9.32262 46.8693 9.55324C47.5416 9.78387 48.1556 10.158 48.6687 10.6497C49.1818 11.1414 49.5817 11.7389 49.8407 12.4007C50.0997 13.0624 50.2116 13.7726 50.1686 14.482C50.1255 15.1913 49.9286 15.8828 49.5915 16.5084C49.2544 17.1339 48.7851 17.6787 48.2163 18.1048C47.6475 18.5308 46.9928 18.828 46.2976 18.9757ZM37.9336 15.6134C37.8629 15.6134 37.7928 15.6111 37.7228 15.6081C37.6789 15.7528 37.6285 15.8946 37.5716 16.0332C37.6883 15.8861 37.8134 15.7459 37.9462 15.6131L37.9336 15.6134Z" fill="#E2E2E2"/>
<path d="M43.2393 66.4211H38.3418L39.158 32.1413C40.2133 32.5205 41.3677 32.5205 42.423 32.1413L43.2393 66.4211Z" fill="#24456F"/>
<path d="M52.2179 71.7251V130.491H29.3618V70.9093L31.2392 70.977L34.6693 71.0984V59.0759H46.9132V71.536L52.2179 71.7251Z" fill="#24456F"/>
<path d="M63.7611 93.7943H58.1148V88.1486H63.7611V93.7943Z" fill="white"/>
<path d="M72.7951 93.7943H67.1488V88.1486H72.7951V93.7943Z" fill="white"/>
<path d="M81.8292 93.7943H76.1829V88.1486H81.8292V93.7943Z" fill="white"/>
<path d="M63.7611 102.827H58.1148V97.1817H63.7611V102.827Z" fill="white"/>
<path d="M72.7951 102.827H67.1488V97.1817H72.7951V102.827Z" fill="white"/>
<path d="M81.8292 102.827H76.1829V97.1817H81.8292V102.827Z" fill="white"/>
<path d="M63.7611 111.861H58.1148V106.215H63.7611V111.861Z" fill="white"/>
<path d="M72.7951 111.861H67.1488V106.215H72.7951V111.861Z" fill="white"/>
<path d="M81.8292 111.861H76.1829V106.215H81.8292V111.861Z" fill="white"/>
<path d="M101.977 91.5359H96.3303V85.8902H101.977V91.5359Z" fill="white"/>
<path d="M101.977 100.569H96.3303V94.9234H101.977V100.569Z" fill="white"/>
<path d="M101.977 109.602H96.3303V103.957H101.977V109.602Z" fill="white"/>
<path d="M101.977 118.635H96.3303V112.99H101.977V118.635Z" fill="white"/>
<path d="M43.6608 91.5359H38.0146V85.8902H43.6608V91.5359Z" fill="white"/>
<path d="M43.6608 100.569H38.0146V94.9234H43.6608V100.569Z" fill="white"/>
<path d="M43.6608 109.602H38.0146V103.957H43.6608V109.602Z" fill="white"/>
<path d="M43.6608 118.635H38.0146V112.99H43.6608V118.635Z" fill="white"/>
</g>
<defs>
<clipPath id="clip0">
<rect width="128" height="130" fill="white" transform="matrix(-1 0 0 1 128.518 0.922119)"/>
</clipPath>
</defs>
</svg>
