<svg width="125" height="137" viewBox="0 0 125 137" fill="none" xmlns="http://www.w3.org/2000/svg">
<g clip-path="url(#clip0)">
<path opacity="0.1" d="M48.5346 136.076C70.4362 136.076 88.191 134.818 88.191 133.267C88.191 131.715 70.4362 130.458 48.5346 130.458C26.6329 130.458 8.87816 131.715 8.87816 133.267C8.87816 134.818 26.6329 136.076 48.5346 136.076Z" fill="#6C63FF"/>
<path d="M71.508 117.972C72.0537 116.995 72.7068 116.074 73.2343 115.085C73.7164 114.179 74.0929 113.218 74.5277 112.287C75.2717 110.692 76.1885 109.184 77.0235 107.632C77.5692 106.616 78.0968 105.508 77.9913 104.359C77.8912 103.272 77.2509 102.329 77.0035 101.278C75.9957 96.9628 73.5708 93.0009 72.0919 88.827C71.7135 87.7685 71.3461 86.7029 70.8731 85.6807C69.9636 83.7142 68.6902 81.9471 67.4168 80.1946C66.9579 79.525 66.447 78.8923 65.8888 78.3024C65.4322 77.8475 64.9192 77.447 64.5044 76.954C63.6495 75.9391 63.2493 74.4783 62.1796 73.6917C62.1614 73.7388 62.1414 73.7841 62.1214 73.8312C61.3556 71.8829 58.787 70.5979 57.2972 68.9831C56.4298 67.9969 55.6318 66.9523 54.9087 65.8567L51.6652 61.1862C51.1068 60.3815 50.5374 59.555 50.3118 58.5963C50.0353 57.44 50.2918 56.2076 50.0189 55.0513C49.8444 54.3552 49.5044 53.7112 49.0275 53.1736C49.0584 53.1645 49.0912 53.1519 49.1239 53.1446C49.7424 52.9797 50.3973 52.9507 51.0103 52.8039C52.3474 52.4867 53.5098 51.6349 54.8414 51.2942C55.5217 51.1129 56.2475 51.0767 56.8642 50.7504C57.1641 50.5716 57.4007 50.3041 57.5409 49.9851C57.6811 49.6661 57.718 49.3115 57.6464 48.9707C57.2153 46.6961 58.4195 44.3908 58.2158 42.0836C58.1612 41.4456 57.9975 40.824 57.892 40.1915C57.6464 38.7234 57.6919 37.2191 57.7792 35.7293C58.1944 35.058 58.6925 34.4412 59.2618 33.8934C60.0804 33.1068 61.0572 32.4435 61.6266 31.4594C62.1232 30.5876 62.2433 29.5346 62.1178 28.5378C62.0286 27.8128 61.7812 27.0498 61.2082 26.6094C60.6352 26.169 59.813 26.1364 59.1199 26.3665C59.0235 26.3973 58.9289 26.4354 58.8361 26.4753C58.5464 26.3308 58.2303 26.2467 57.9069 26.228C57.5835 26.2093 57.2597 26.2564 56.9552 26.3665C56.2639 26.5949 55.6709 27.0498 55.1142 27.5228C54.7843 27.7806 54.4949 28.086 54.2556 28.429C53.9045 28.9727 53.8027 29.6433 53.6699 30.2831C53.3875 31.5181 52.9759 32.7203 52.442 33.8698C52.3437 34.0728 52.0782 34.4371 51.8635 34.7851L51.4742 34.7053C51.305 36.3202 49.948 37.5055 49.1221 38.901C48.7201 39.5789 48.4381 40.3201 48.0761 41.0215C47.6631 41.785 47.2019 42.5217 46.6954 43.2272C46.2043 43.9522 45.7125 44.6705 45.2201 45.3821C44.6031 46.3168 43.9351 47.2171 43.2191 48.079C42.5515 48.0246 41.8839 47.9757 41.2181 47.9648C40.1006 47.9488 38.9844 48.0478 37.8873 48.2602C37.8234 47.8758 37.7839 47.4878 37.7691 47.0985C37.7691 47.0749 37.7691 47.0513 37.7691 47.0278C37.7691 46.9335 37.78 46.8212 37.7928 46.6997C38.7382 46.0689 39.5077 45.2096 40.0293 44.202C40.551 43.1945 40.8077 42.0716 40.7755 40.9384C40.7434 39.8052 40.4234 38.6986 39.8454 37.722C39.2675 36.7454 38.4505 35.9308 37.4708 35.3542C37.5069 35.1504 37.53 34.9446 37.5399 34.738C37.5399 34.6165 37.5399 34.4933 37.5399 34.3755C37.5399 34.3139 37.5399 34.2522 37.5272 34.1942C37.5159 34.072 37.4952 33.9508 37.4653 33.8318C37.4508 33.7738 37.4344 33.7158 37.4144 33.6505C37.3757 33.5368 37.3251 33.4275 37.2634 33.3243C37.2596 33.318 37.2553 33.3119 37.2507 33.3062C37.227 33.2681 37.2034 33.2301 37.1761 33.1938C37.1488 33.1576 37.1524 33.1648 37.1415 33.1503C37.1224 33.1238 37.1017 33.0984 37.0797 33.0742L37.0342 33.0271C37.0142 33.0053 36.9942 32.9836 36.9723 32.9636L36.9214 32.9183L36.8577 32.8621L36.7995 32.8186L36.734 32.7697L36.6704 32.728L36.6049 32.6863C36.583 32.6718 36.5594 32.6592 36.5358 32.6465L36.4684 32.6084L36.3957 32.5722L36.3284 32.5395L36.2483 32.5051L36.1829 32.4761L36.0955 32.4435L36.0337 32.4199L35.9391 32.3873L35.8827 32.3692L35.779 32.3365L35.7299 32.322L35.6171 32.2912L35.5735 32.2785L35.4552 32.2496L35.4206 32.2405L35.2897 32.2115H35.2678L35.075 32.1698C34.2782 32.0067 33.4766 31.8659 32.6702 31.7475C32.0098 31.6497 31.3331 31.5663 30.6819 31.7131C29.7833 31.9124 29.0338 32.5178 28.1934 32.893C27.2001 33.3388 26.0978 33.4566 25.039 33.7013C23.9803 33.9459 22.8907 34.3646 22.2267 35.2291C21.721 35.8888 21.5191 36.728 21.3681 37.5454C20.1093 44.3672 21.4663 51.3648 21.7228 58.2991C21.8229 60.9977 21.701 63.883 20.1657 66.0923L24.637 65.9745C24.8517 65.9745 25.0681 65.9618 25.2864 65.9492C25.5047 65.9365 25.723 65.9202 25.9377 65.8948C26.5047 65.8418 27.0556 65.6774 27.5585 65.4109C27.7914 65.2787 28.0039 65.1139 28.1897 64.9215C28.7973 64.2981 29.1211 63.4263 29.4176 62.5926C29.5177 62.3117 29.6177 62.0271 29.7069 61.7408C29.7432 61.6212 29.7778 61.5016 29.8087 61.3783L29.8233 61.3203L29.8742 61.3439C30.0561 61.6846 30.2617 62.0181 30.48 62.3407C31.2604 63.4861 32.25 64.4648 33.2323 65.4381C35.1842 67.3683 37.1797 69.3329 39.6264 70.5726C40.4523 70.9876 41.3455 71.3374 41.9749 72.0225C42.2841 72.3541 42.5515 72.7801 42.9899 72.8942C43.2628 72.9649 43.5629 72.8942 43.8231 73.0102C44.2051 73.1697 44.3452 73.6283 44.5216 74.0052C44.6981 74.3822 45.0964 74.7664 45.4748 74.5943C45.4039 74.9443 45.4332 75.3071 45.5592 75.6413C45.6853 75.9756 45.9032 76.2678 46.1879 76.4846C46.3712 76.586 46.5291 76.7272 46.65 76.8978C46.7082 77.0534 46.7402 77.2175 46.7446 77.3835C46.8223 77.8464 47.0676 78.2649 47.434 78.5598C47.0793 79.1452 47.363 79.9843 47.3721 80.7147C47.3721 81.3273 47.1702 81.9181 47.032 82.5144C46.6299 84.2634 46.8501 86.0939 47.1775 87.8573C47.3594 88.8306 47.5904 89.8383 48.2271 90.5941C48.4345 90.8387 48.6819 91.0508 48.9002 91.2882C49.3169 91.756 49.6631 92.2816 49.928 92.8487C50.4801 93.9714 50.8561 95.1719 51.0431 96.4082C51.131 97.0286 51.3087 97.6329 51.5706 98.2025C51.969 99.0688 51.6052 100.134 51.9617 101.019C52.1236 101.416 52.422 101.755 52.5184 102.17C52.6548 102.773 52.3365 103.377 52.251 103.991C52.0436 105.43 53.0859 106.766 53.1805 108.216C53.196 108.301 53.1778 108.389 53.1296 108.461C53.0586 108.54 52.9368 108.539 52.8404 108.584C52.6584 108.671 52.6093 108.916 52.5511 109.119C52.4929 109.322 52.3292 109.552 52.1273 109.49C49.1385 111.083 46.0442 112.555 43.0554 114.148L41.6911 114.873L34.3947 118.757C34.3061 118.801 34.2316 118.868 34.1799 118.952C34.1281 119.036 34.101 119.133 34.1018 119.232C34.1018 119.319 34.1127 119.413 34.12 119.494C33.6088 119.621 33.1177 119.774 32.7684 119.837C32.6247 119.864 32.481 119.891 32.3391 119.922C32.3736 119.867 32.3959 119.805 32.4046 119.741C32.4052 119.652 32.3726 119.565 32.3132 119.498C32.2538 119.431 32.1717 119.389 32.0826 119.378C31.9044 119.361 31.7245 119.384 31.5569 119.447C31.1398 119.561 30.7138 119.639 30.2835 119.681C29.7723 119.73 29.2521 119.728 28.7573 119.862C28.2625 119.996 27.775 120.296 27.5749 120.769C27.4748 121.042 27.4302 121.333 27.4439 121.624C27.4328 122.744 27.5661 123.861 27.8405 124.948C27.8448 124.991 27.859 125.033 27.8821 125.069C27.9051 125.106 27.9363 125.137 27.9732 125.16C28.0369 125.185 28.1133 125.16 28.177 125.189C28.233 125.223 28.275 125.276 28.2952 125.338C28.6008 126.03 28.6718 126.802 28.7536 127.556C28.8749 128.674 29.0283 129.788 29.2139 130.9C29.323 131.549 29.4576 132.227 29.8815 132.727C30.3472 133.27 31.0839 133.511 31.7952 133.608C33.2959 133.809 34.8112 133.506 36.292 133.196C36.5685 133.138 36.865 133.067 37.0506 132.854C37.1862 132.683 37.2513 132.467 37.2325 132.25C37.1979 131.505 36.5176 130.981 35.8991 130.563L35.055 129.981C34.983 129.943 34.9259 129.882 34.893 129.807C34.86 129.733 34.853 129.65 34.8731 129.571L34.9277 128.471H34.764C34.9459 127.696 35.2387 126.951 35.8118 126.418C36.2065 126.055 36.7213 125.802 37.1342 125.472C37.664 125.878 38.3058 126.112 38.9734 126.144C40.0648 124.68 41.602 123.683 43.1391 122.701C44.3876 121.915 45.678 121.197 47.0047 120.551C48.0792 120.022 49.1706 119.526 50.2791 119.063C51.8435 118.407 53.437 117.822 55.0324 117.251C56.0965 116.87 57.1698 116.495 58.1503 115.933C60.6971 114.467 62.4961 111.54 62.1523 108.609C61.7194 104.912 62.6453 101.059 62.5835 97.3362C62.5653 96.2487 62.5253 95.1613 62.1942 94.1192C62.2712 94.1736 62.3436 94.2342 62.4106 94.3004C63.0728 94.9166 63.2329 95.8953 63.8659 96.5985C64.3589 97.1513 65.1084 97.5047 65.4067 98.1789C65.6341 98.6954 65.6013 99.3932 66.0761 99.6904C66.2108 99.7756 66.3708 99.8119 66.5054 99.8952C66.6665 100.01 66.8021 100.156 66.9038 100.325C67.4077 101.041 67.9298 101.807 67.9844 102.681C68.008 103.027 67.9753 103.428 68.2299 103.661C68.3027 103.728 68.3955 103.777 68.4337 103.868C68.5137 104.049 68.3027 104.241 68.2663 104.443C68.2136 104.722 68.4901 104.934 68.6611 105.168C68.8038 105.363 68.8806 105.598 68.8806 105.839C68.8806 106.08 68.8038 106.315 68.6611 106.51C67.1694 108.441 66.9002 111.041 65.5959 113.106C65.1448 113.818 64.6427 114.492 64.2061 115.214C62.8636 117.428 62.1851 119.973 61.5266 122.479C61.8079 122.967 62.1891 123.391 62.6453 123.723C62.3988 124.567 61.974 125.349 61.3992 126.015C61.2525 126.178 61.1153 126.35 60.9881 126.528C60.8814 126.394 60.7417 126.289 60.5824 126.224C60.3432 127.264 60.2212 128.328 60.2186 129.396C60.2186 130.099 60.315 130.902 60.8881 131.308C61.1168 131.451 61.3684 131.555 61.6321 131.614L62.88 131.976C63.0995 132.06 63.3377 132.083 63.5694 132.043C63.7168 132.002 63.8477 131.911 63.9987 131.882C64.1628 131.865 64.3285 131.887 64.4826 131.946L65.5613 132.259C65.9261 132.356 66.2825 132.481 66.6273 132.634C66.9347 132.781 67.2185 132.971 67.5205 133.135C68.0227 133.387 68.5439 133.601 69.0795 133.772L70.9386 134.41C71.4566 134.615 71.9979 134.755 72.5503 134.827C72.9323 134.86 73.3198 134.827 73.6964 134.893C73.9838 134.941 74.2621 135.045 74.5513 135.074C75.0313 135.088 75.5032 134.948 75.8975 134.675C76.0515 134.588 76.1844 134.469 76.2868 134.325C76.5596 133.901 76.325 133.341 76.0594 132.913C75.5664 132.12 74.9497 131.376 74.1366 130.92C73.8073 130.739 73.4508 130.604 73.1106 130.438C72.1428 129.966 71.4134 129.18 70.4984 128.642C70.3817 128.559 70.2398 128.519 70.0969 128.528C69.954 128.538 69.8188 128.597 69.7143 128.694C68.954 128.203 68.1317 127.723 67.7133 126.923C67.5269 126.538 67.4041 126.125 67.3495 125.7C67.777 125.802 68.2081 125.881 68.6429 125.952C69.3505 123.219 70.1236 120.437 71.508 117.972ZM54.0319 40.6754C53.9955 40.8802 53.9555 41.0831 53.9118 41.2861C53.548 42.988 53.0277 44.8946 51.838 46.1615C51.4467 46.5328 50.9921 46.8317 50.4955 47.0441L50.3627 47.1093C51.2195 44.8294 52.5839 42.7161 54.0319 40.6754Z" fill="url(#paint0_linear)"/>
<path d="M55.7928 30.5801C55.9274 29.9476 56.0293 29.2842 56.3804 28.7387C56.6204 28.3957 56.9104 28.0903 57.2408 27.8325C57.7974 27.3631 58.3923 26.9118 59.0854 26.6835C59.7784 26.4551 60.5934 26.4859 61.1755 26.9245C61.7576 27.3631 62.0032 28.1189 62.0942 28.8402C62.2179 29.8316 62.0942 30.8755 61.6012 31.74C61.0373 32.7205 60.0586 33.3712 59.2364 34.1578C58.6407 34.7256 58.1226 35.3691 57.6956 36.0716C57.5012 36.4378 57.2657 36.7808 56.9934 37.0938C56.8553 37.2496 56.6825 37.3709 56.4889 37.448C56.2952 37.5251 56.0861 37.5559 55.8783 37.5379C55.5272 37.4817 55.2416 37.2388 54.9687 37.0068C54.6322 36.7132 53.7263 36.1894 53.6954 35.7237C53.6736 35.3467 54.3812 34.4912 54.554 34.1378C55.0916 32.9987 55.5069 31.8062 55.7928 30.5801Z" fill="#FBBEBE"/>
<path opacity="0.1" d="M55.7928 30.5801C55.9274 29.9476 56.0293 29.2842 56.3804 28.7387C56.6204 28.3957 56.9104 28.0903 57.2408 27.8325C57.7974 27.3631 58.3923 26.9118 59.0854 26.6835C59.7784 26.4551 60.5934 26.4859 61.1755 26.9245C61.7576 27.3631 62.0032 28.1189 62.0942 28.8402C62.2179 29.8316 62.0942 30.8755 61.6012 31.74C61.0373 32.7205 60.0586 33.3712 59.2364 34.1578C58.6407 34.7256 58.1226 35.3691 57.6956 36.0716C57.5012 36.4378 57.2657 36.7808 56.9934 37.0938C56.8553 37.2496 56.6825 37.3709 56.4889 37.448C56.2952 37.5251 56.0861 37.5559 55.8783 37.5379C55.5272 37.4817 55.2416 37.2388 54.9687 37.0068C54.6322 36.7132 53.7263 36.1894 53.6954 35.7237C53.6736 35.3467 54.3812 34.4912 54.554 34.1378C55.0916 32.9987 55.5069 31.8062 55.7928 30.5801Z" fill="black"/>
<path d="M36.6922 48.6952C38.1497 48.3091 39.6538 48.1261 41.1617 48.1515C43.6776 48.1877 46.268 48.7949 48.6637 48.0264C49.2822 47.8127 49.8836 47.5528 50.4628 47.2489C50.9449 47.0097 51.436 46.7632 51.8053 46.3717C52.9968 45.1139 53.5098 43.22 53.8827 41.529C54.2556 39.838 54.352 38.1018 54.4484 36.3746C55.0688 36.6627 55.7218 36.9473 56.4094 36.8893C57.0971 36.8313 57.7829 36.3093 57.7792 35.6206C57.6774 37.2209 57.5973 38.8412 57.8684 40.4216C57.9739 41.0487 58.1376 41.6667 58.194 42.3011C58.3977 44.5919 57.1917 46.881 57.6228 49.141C57.694 49.4801 57.6568 49.8328 57.5165 50.1497C57.3762 50.4667 57.1399 50.7319 56.8406 50.9081C56.2221 51.2398 55.4944 51.2815 54.8141 51.4518C53.4807 51.7908 52.3165 52.6353 50.9776 52.9507C50.3537 53.0975 49.7042 53.1319 49.0894 53.2896C48.2053 53.5216 47.4031 54.0254 46.5026 54.1849C45.8277 54.3045 45.1328 54.223 44.4507 54.281C43.8576 54.3299 43.2755 54.4858 42.6807 54.5003C41.2254 54.5365 39.8483 53.7155 38.8806 52.6263C37.9128 51.537 37.2998 50.0146 36.6922 48.6952Z" fill="#6C63FF"/>
<path d="M36.6922 48.6952C38.1497 48.3091 39.6538 48.1261 41.1617 48.1515C43.6776 48.1877 46.268 48.7949 48.6637 48.0264C49.2822 47.8127 49.8836 47.5528 50.4628 47.2489C50.9449 47.0097 51.436 46.7632 51.8053 46.3717C52.9968 45.1139 53.5098 43.22 53.8827 41.529C54.2556 39.838 54.352 38.1018 54.4484 36.3746C55.0688 36.6627 55.7218 36.9473 56.4094 36.8893C57.0971 36.8313 57.7829 36.3093 57.7792 35.6206C57.6774 37.2209 57.5973 38.8412 57.8684 40.4216C57.9739 41.0487 58.1376 41.6667 58.194 42.3011C58.3977 44.5919 57.1917 46.881 57.6228 49.141C57.694 49.4801 57.6568 49.8328 57.5165 50.1497C57.3762 50.4667 57.1399 50.7319 56.8406 50.9081C56.2221 51.2398 55.4944 51.2815 54.8141 51.4518C53.4807 51.7908 52.3165 52.6353 50.9776 52.9507C50.3537 53.0975 49.7042 53.1319 49.0894 53.2896C48.2053 53.5216 47.4031 54.0254 46.5026 54.1849C45.8277 54.3045 45.1328 54.223 44.4507 54.281C43.8576 54.3299 43.2755 54.4858 42.6807 54.5003C41.2254 54.5365 39.8483 53.7155 38.8806 52.6263C37.9128 51.537 37.2998 50.0146 36.6922 48.6952Z" fill="#24456F"/>
<path d="M102.113 50.9226C104.589 50.9226 107.011 51.6543 109.07 53.0254C111.129 54.3964 112.734 56.345 113.682 58.6249C114.63 60.9048 114.878 63.4135 114.395 65.8338C113.911 68.254 112.718 70.4771 110.967 72.2219C109.215 73.9667 106.984 75.1548 104.555 75.636C102.125 76.1172 99.6073 75.8699 97.3191 74.9253C95.0309 73.9807 93.0752 72.3813 91.6994 70.3293C90.3236 68.2773 89.5895 65.8649 89.5899 63.3972C89.5903 60.0886 90.9099 56.9156 93.2583 54.5762C95.6067 52.2368 98.7917 50.9226 102.113 50.9226ZM102.113 47.8415C99.0241 47.8415 96.005 48.754 93.437 50.4635C90.8691 52.1731 88.8677 54.603 87.6859 57.4459C86.504 60.2887 86.1949 63.4169 86.7976 66.4349C87.4002 69.4528 88.8876 72.2249 91.0716 74.4006C93.2556 76.5762 96.0381 78.0578 99.0673 78.6579C102.096 79.258 105.236 78.9496 108.089 77.7719C110.943 76.5941 113.381 74.5997 115.097 72.0411C116.813 69.4824 117.728 66.4743 117.728 63.3972C117.723 59.2728 116.076 55.3186 113.149 52.4023C110.221 49.486 106.252 47.8458 102.113 47.8415Z" fill="#3F3D56"/>
<path d="M103.46 44.2021H99.8005V48.0408H103.46V44.2021Z" fill="#3F3D56"/>
<path d="M113.126 47.6374L109.989 45.7593L108.004 49.0496L111.142 50.9277L113.126 47.6374Z" fill="#3F3D56"/>
<path d="M119.56 55.2347L117.785 52.0453L114.416 53.9064L116.19 57.0957L119.56 55.2347Z" fill="#3F3D56"/>
<path d="M117.737 74.6447L119.677 71.5522L116.409 69.5181L114.47 72.6105L117.737 74.6447Z" fill="#3F3D56"/>
<path d="M88.0362 57.0942L89.8106 53.9048L86.4409 52.0438L84.6664 55.2332L88.0362 57.0942Z" fill="#3F3D56"/>
<path d="M89.7568 72.609L87.8172 69.5166L84.5498 71.5508L86.4893 74.6432L89.7568 72.609Z" fill="#3F3D56"/>
<path d="M93.0827 50.9275L96.22 49.0494L94.2356 45.7591L91.0983 47.6372L93.0827 50.9275Z" fill="#3F3D56"/>
<path d="M103.46 78.7536H99.8005V82.5922H103.46V78.7536Z" fill="#3F3D56"/>
<path d="M111.142 75.8676L108.005 77.7457L109.989 81.0361L113.127 79.158L111.142 75.8676Z" fill="#3F3D56"/>
<path d="M91.0988 79.1583L94.2361 81.0364L96.2205 77.7461L93.0832 75.868L91.0988 79.1583Z" fill="#3F3D56"/>
<path d="M86.894 61.8622H82.4626V65.1245H86.894V61.8622Z" fill="#3F3D56"/>
<path d="M117.331 65.1246H121.762V61.8623H117.331V65.1246Z" fill="#3F3D56"/>
<path d="M73.0142 27.5046C73.1616 27.5046 73.3089 27.5046 73.4563 27.5046C76.7385 27.6162 79.8454 29.0079 82.1076 31.3799C84.3698 33.7519 85.6061 36.9144 85.5503 40.186C85.4945 43.4576 84.1509 46.5763 81.8091 48.8704C79.4673 51.1644 76.3147 52.4501 73.0306 52.4504C72.8832 52.4504 72.7359 52.4504 72.5867 52.4504C69.3043 52.3389 66.1973 50.947 63.9351 48.5748C61.6729 46.2026 60.4366 43.0399 60.4927 39.7682C60.5487 36.4964 61.8926 33.3776 64.2348 31.0837C66.577 28.7898 69.7299 27.5045 73.0142 27.5046ZM73.0142 24.4236C68.9188 24.4231 64.9871 26.0256 62.0663 28.8858C59.1456 31.746 57.4695 35.635 57.3994 39.7147C57.3293 43.7944 58.8706 47.7383 61.6913 50.6965C64.5121 53.6547 68.3864 55.3904 72.4794 55.5297C72.6613 55.5297 72.8432 55.5387 73.0251 55.5387C77.1204 55.5387 81.0517 53.9359 83.9721 51.0755C86.8925 48.2152 88.5682 44.3263 88.6381 40.2467C88.708 36.1672 87.1666 32.2235 84.3459 29.2655C81.5251 26.3075 77.651 24.5719 73.5581 24.4326C73.3762 24.4326 73.1943 24.4236 73.0124 24.4236H73.0142Z" fill="#3F3D56"/>
<path d="M75.0356 20.8473L71.3778 20.7207L71.244 24.557L74.9018 24.6837L75.0356 20.8473Z" fill="#3F3D56"/>
<path d="M84.5742 24.612L81.5042 22.6265L79.4064 25.8462L82.4763 27.8317L84.5742 24.612Z" fill="#3F3D56"/>
<path d="M90.7405 32.427L89.0783 29.1782L85.6457 30.9215L87.3078 34.1703L90.7405 32.427Z" fill="#3F3D56"/>
<path d="M88.2451 51.7573L90.2912 48.7338L87.0967 46.5878L85.0505 49.6113L88.2451 51.7573Z" fill="#3F3D56"/>
<path d="M59.1705 33.1938L61.055 30.0677L57.7521 28.0913L55.8676 31.2173L59.1705 33.1938Z" fill="#3F3D56"/>
<path d="M60.094 49.0594L58.2639 45.887L54.912 47.8063L56.742 50.9788L60.094 49.0594Z" fill="#3F3D56"/>
<path d="M64.4333 27.2024L67.6341 25.434L65.7656 22.077L62.5648 23.8454L64.4333 27.2024Z" fill="#3F3D56"/>
<path d="M73.8329 55.3743L70.1751 55.2477L70.0413 59.084L73.6991 59.2106L73.8329 55.3743Z" fill="#3F3D56"/>
<path d="M81.6123 52.7589L78.4115 54.5273L80.28 57.8843L83.4808 56.1159L81.6123 52.7589Z" fill="#3F3D56"/>
<path d="M61.4687 55.3499L64.5386 57.3354L66.6365 54.1157L63.5665 52.1302L61.4687 55.3499Z" fill="#3F3D56"/>
<path d="M57.8647 37.9213L53.436 37.768L53.3223 41.0283L57.751 41.1817L57.8647 37.9213Z" fill="#3F3D56"/>
<path d="M88.174 42.2296L92.6027 42.3829L92.7164 39.1226L88.2877 38.9693L88.174 42.2296Z" fill="#3F3D56"/>
<path d="M32.6902 119.532C32.2395 119.587 31.8025 119.723 31.4004 119.933C30.8547 120.265 30.5182 120.85 30.278 121.441C29.6759 122.923 29.5504 124.551 29.5249 126.153C29.5031 127.444 29.5468 128.765 30.0106 129.968C30.1379 130.349 30.3586 130.692 30.6528 130.967C30.9116 131.17 31.2113 131.314 31.5314 131.391C32.2227 131.572 33.0249 131.572 33.5906 131.137C34.22 130.646 34.3783 129.782 34.5111 128.997C34.693 127.938 34.9459 126.822 35.7353 126.084C36.3211 125.541 37.1597 125.269 37.5854 124.595C38.0929 123.793 37.8255 122.748 37.5017 121.856C37.2197 121.084 36.8068 119.516 35.9955 119.121C35.1842 118.726 33.5342 119.38 32.6902 119.532Z" fill="#FBBEBE"/>
<path d="M62.6089 123.329C62.3637 124.194 61.9287 124.993 61.3356 125.669C60.9717 126.082 60.5261 126.584 60.7171 127.097C60.7948 127.271 60.9103 127.425 61.0554 127.549C63.7222 130.149 67.4532 131.414 71.1551 131.875C71.2146 131.891 71.2774 131.891 71.337 131.875C71.4461 131.826 71.4716 131.694 71.4862 131.572C71.5453 131.188 71.5453 130.797 71.4862 130.412C71.3042 129.506 70.5129 128.877 69.738 128.381C68.9631 127.884 68.1154 127.402 67.6824 126.592C67.1367 125.584 67.3713 124.272 66.7292 123.329C66.2089 122.563 65.243 122.242 64.3262 122.092C64.0078 122.043 63.3311 121.695 63.0528 121.856C62.769 122.019 62.7053 123.014 62.6089 123.329Z" fill="#FBBEBE"/>
<path d="M32.3264 119.438C32.327 119.349 32.2944 119.262 32.235 119.195C32.1756 119.129 32.0935 119.086 32.0044 119.076C31.8263 119.057 31.6464 119.08 31.4787 119.143C31.0615 119.256 30.6356 119.333 30.2053 119.375C29.6941 119.424 29.172 119.422 28.6754 119.556C28.1788 119.69 27.6931 119.985 27.4912 120.462C27.393 120.734 27.3485 121.023 27.3602 121.312C27.3499 122.425 27.4832 123.534 27.7568 124.612C27.7616 124.656 27.7762 124.697 27.7995 124.734C27.8229 124.771 27.8543 124.802 27.8914 124.825C27.9551 124.85 28.0315 124.825 28.0951 124.854C28.1511 124.887 28.1931 124.939 28.2134 125C28.5208 125.689 28.5918 126.45 28.6736 127.204C28.7949 128.315 28.9483 129.421 29.1338 130.525C29.243 131.168 29.3776 131.844 29.8033 132.337C30.269 132.881 31.0075 133.114 31.7188 133.21C33.2214 133.41 34.7385 133.109 36.2229 132.801C36.5059 132.773 36.7721 132.654 36.9815 132.462C37.1171 132.293 37.1822 132.078 37.1634 131.862C37.1288 131.123 36.4466 130.593 35.8281 130.187L34.9768 129.617C34.9174 129.584 34.8664 129.538 34.8276 129.482C34.7873 129.398 34.7727 129.303 34.7858 129.211L34.8404 128.123C34.2749 128.132 33.7224 128.294 33.2419 128.591C32.7613 128.888 32.3707 129.31 32.1117 129.81C31.9935 130.044 31.8825 130.318 31.6369 130.409C31.3331 130.523 30.9948 130.267 30.8929 129.961C30.8221 129.645 30.8314 129.316 30.9202 129.004C31.4186 126.343 31.3022 123.608 31.606 120.919C31.6248 120.617 31.7179 120.324 31.8771 120.067C32.0244 119.864 32.2991 119.686 32.3264 119.438Z" fill="#3F3D56"/>
<path d="M69.4797 129.754C69.6052 129.961 69.7998 130.117 69.9163 130.331C70.0327 130.545 70.0309 130.856 69.8217 130.978C69.6982 131.032 69.5607 131.046 69.4287 131.018C66.7578 130.687 64.2504 129.557 62.2378 127.777C61.9037 127.496 61.6077 127.172 61.3574 126.815C61.1227 126.452 60.9244 126.026 60.5242 125.878C60.285 126.911 60.163 127.967 60.1604 129.028C60.1604 129.725 60.2568 130.523 60.8298 130.927C61.0595 131.069 61.3117 131.171 61.5757 131.23L62.8254 131.581C63.0458 131.664 63.2843 131.687 63.5167 131.648C63.664 131.608 63.795 131.516 63.946 131.489C64.1105 131.471 64.2768 131.492 64.4317 131.55L65.5104 131.864C65.8754 131.957 66.2324 132.078 66.5782 132.226C66.8856 132.371 67.1712 132.562 67.4714 132.723C67.9747 132.975 68.4972 133.186 69.034 133.356L70.9331 134.012C71.4522 134.216 71.9949 134.355 72.5485 134.425C72.9305 134.458 73.318 134.425 73.6964 134.49C73.9838 134.539 74.2621 134.642 74.5532 134.671C75.0327 134.684 75.5041 134.545 75.8993 134.274C76.0533 134.189 76.1868 134.071 76.2904 133.928C76.5633 133.506 76.3286 132.95 76.0612 132.524C75.5682 131.737 74.9515 130.999 74.1366 130.55C73.8055 130.369 73.449 130.235 73.1088 130.07C72.141 129.602 71.4079 128.821 70.4929 128.286C69.6288 127.786 69.0722 129.089 69.4797 129.754Z" fill="#3F3D56"/>
<path d="M42.8062 53.5777C41.803 54.2644 40.6535 54.7098 39.4481 54.879C38.8177 54.9572 38.1824 54.9911 37.5472 54.9805C34.8983 54.9773 32.2541 54.7572 29.6414 54.3226C30.6819 53.1807 31.7333 51.9664 32.1263 50.4694C32.321 49.6798 32.3611 48.8601 32.2445 48.0553C32.0869 47.0228 31.8398 46.0059 31.5059 45.0159C32.6204 45.0755 33.7377 45.047 34.8476 44.9308C35.4807 44.8673 37.0306 44.2928 37.5763 44.7278C38.0875 45.1319 37.7018 46.5619 37.6927 47.2216C37.6927 47.2452 37.6927 47.2687 37.6927 47.2923C37.7213 48.2937 37.9379 49.281 38.3312 50.203C39.1316 51.9864 40.8434 53.4508 42.8062 53.5777Z" fill="#FBBEBE"/>
<path opacity="0.1" d="M37.7 47.2126C36.9028 47.7315 36.0033 48.0744 35.062 48.2182C34.1207 48.362 33.1594 48.3034 32.2427 48.0463C32.0851 47.0138 31.838 45.9969 31.5042 45.0069C32.6186 45.0664 33.7359 45.038 34.8458 44.9217C35.4789 44.8583 37.0288 44.2838 37.5745 44.7187C38.0948 45.1229 37.7091 46.5529 37.7 47.2126Z" fill="black"/>
<path d="M34.0545 47.9848C37.7316 47.9848 40.7124 45.015 40.7124 41.3515C40.7124 37.688 37.7316 34.7181 34.0545 34.7181C30.3774 34.7181 27.3966 37.688 27.3966 41.3515C27.3966 45.015 30.3774 47.9848 34.0545 47.9848Z" fill="#FBBEBE"/>
<path d="M62.3034 74.9168C62.307 75.4522 62.1705 75.9794 61.9073 76.4462C61.6441 76.9131 61.2634 77.3036 60.8026 77.5792C60.2879 77.8484 59.7363 78.0407 59.1654 78.1501C56.1202 78.875 53.0005 79.4713 49.8734 79.2937C49.1967 79.2556 48.5091 79.1759 47.9015 78.8805C47.2939 78.585 46.7755 78.0323 46.6845 77.3653C46.6805 77.2003 46.6479 77.0372 46.5881 76.8832C46.4676 76.7132 46.3095 76.5731 46.1261 76.4736C45.8448 76.2584 45.6299 75.9688 45.5057 75.6378C45.3816 75.3068 45.3532 74.9477 45.4239 74.6014C45.0437 74.77 44.6472 74.3894 44.4689 74.0142C44.2906 73.639 44.1505 73.1859 43.7685 73.0283C43.5084 72.9177 43.2082 72.9829 42.9336 72.9123C42.4952 72.7999 42.2277 72.3685 41.9185 72.0459C41.2873 71.3735 40.3923 71.0256 39.5664 70.6123C37.1161 69.3817 35.1187 67.4316 33.1632 65.5141C32.179 64.5481 31.1876 63.5748 30.4072 62.433C30.1871 62.1122 29.9888 61.7824 29.8015 61.4435C29.2098 60.3133 28.6969 59.144 28.2661 57.9437C28.0187 57.3021 27.7677 56.6243 27.8696 55.9501C27.8787 55.8885 27.8914 55.8269 27.906 55.7689C28.0327 55.3308 28.2373 54.9189 28.5099 54.5527C29.1866 53.5614 30.0743 52.6225 31.2386 52.3181C32.4028 52.0136 33.5652 52.3815 34.7476 52.6316C35.1402 52.7187 35.5383 52.7792 35.9391 52.8128C37.1925 52.9017 38.4331 52.5664 39.6446 52.2329L40.9653 51.8704C41.6274 51.6892 41.9585 50.8917 42.6279 50.7522C42.927 50.7093 43.2316 50.7247 43.5248 50.7975C44.8836 51.0548 46.2534 51.3865 47.4486 52.0752C47.7146 52.2291 47.9694 52.4017 48.2108 52.5917C49.0621 53.2623 49.7352 54.1558 49.9826 55.1998C50.2554 56.347 49.999 57.5722 50.2755 58.7194C50.501 59.6673 51.0722 60.4938 51.6325 61.293L54.8832 65.9182C55.6088 67.0067 56.408 68.0446 57.2754 69.0247C59.0181 70.915 62.2597 72.345 62.3034 74.9168Z" fill="#24456F"/>
<path d="M53.6226 30.5801C53.7572 29.9476 53.8573 29.2842 54.2083 28.7387C54.4484 28.3957 54.7384 28.0903 55.0688 27.8325C55.6272 27.3631 56.2203 26.9118 56.9133 26.6835C57.6064 26.4551 58.4214 26.4859 59.0035 26.9245C59.5856 27.3631 59.8312 28.1189 59.9221 28.8402C60.0458 29.8316 59.9221 30.8755 59.4292 31.74C58.8652 32.7205 57.8866 33.3712 57.0643 34.1578C56.4692 34.7261 55.9512 35.3695 55.5236 36.0716C55.3292 36.4378 55.0936 36.7808 54.8214 37.0938C54.6833 37.2496 54.5105 37.3709 54.3168 37.448C54.1232 37.5251 53.914 37.5559 53.7063 37.5379C53.357 37.4817 53.0696 37.2388 52.7967 37.0068C52.4602 36.7132 51.5525 36.1894 51.5234 35.7237C51.5015 35.3467 52.2092 34.4912 52.382 34.1378C52.9194 32.9985 53.3352 31.806 53.6226 30.5801Z" fill="#FBBEBE"/>
<path d="M77.0217 107.418C76.1849 108.957 75.2681 110.456 74.5222 112.04C74.0875 112.966 73.7109 113.919 73.227 114.82C72.6995 115.803 72.0501 116.716 71.4989 117.687C70.1109 120.136 69.3378 122.898 68.6229 125.618C66.6232 125.32 64.6992 124.643 62.9546 123.625C62.8363 123.556 62.7236 123.483 62.6144 123.406C62.1479 123.072 61.7579 122.644 61.4702 122.15C62.1305 119.661 62.8091 117.131 64.1534 114.933C64.5918 114.208 65.0938 113.546 65.545 112.839C66.8529 110.791 67.1221 108.207 68.6156 106.289C68.7584 106.096 68.8353 105.862 68.8353 105.622C68.8353 105.382 68.7584 105.149 68.6156 104.955C68.4428 104.732 68.1681 104.52 68.2191 104.245C68.2573 104.044 68.4683 103.862 68.3864 103.674C68.3482 103.583 68.2554 103.534 68.1827 103.469C67.928 103.235 67.9608 102.837 67.9389 102.494C67.8825 101.626 67.3604 100.863 66.8475 100.154C66.7451 99.9863 66.6096 99.8408 66.4491 99.7266C66.3145 99.6451 66.1544 99.6088 66.0198 99.5254C65.5432 99.2282 65.5777 98.5359 65.3485 98.023C65.0502 97.3469 64.2989 97.0026 63.8059 96.4534C63.1783 95.7557 63.0183 94.7824 62.3506 94.1716C62.2833 94.1057 62.2109 94.0451 62.1342 93.9904C62.4652 95.0144 62.498 96.1073 62.5216 97.1856C62.5853 100.881 61.6576 104.707 62.0923 108.379C62.4343 111.291 60.637 114.199 58.0812 115.654C57.0989 116.212 56.0256 116.585 54.9596 116.964C53.3606 117.528 51.7671 118.11 50.199 118.762C49.0906 119.219 47.9992 119.711 46.9247 120.239C45.5964 120.882 44.3036 121.594 43.0518 122.374C41.5128 123.349 39.9739 124.341 38.8806 125.796C37.8237 125.767 36.8559 125.135 36.1865 124.319C35.5171 123.503 35.0951 122.507 34.7112 121.535C34.371 120.692 34.0363 119.822 34.0109 118.914C34.0154 118.817 34.0476 118.723 34.1036 118.642C34.1596 118.562 34.2371 118.499 34.3274 118.461L41.6347 114.603L43.0009 113.878C45.9933 112.296 49.093 110.833 52.0855 109.253C52.2874 109.312 52.4493 109.084 52.5093 108.89C52.5693 108.696 52.6112 108.446 52.8004 108.359C52.895 108.314 53.0187 108.316 53.0896 108.236C53.1358 108.164 53.154 108.079 53.1405 107.995C53.0441 106.545 52 105.227 52.2092 103.797C52.2983 103.188 52.613 102.588 52.4766 101.985C52.3801 101.57 52.0818 101.235 51.9199 100.841C51.5561 99.9622 51.9199 98.9038 51.527 98.0429C51.2659 97.4768 51.0882 96.8762 50.9995 96.2595C50.8113 95.0314 50.4346 93.8394 49.8825 92.7253C49.6168 92.1621 49.2706 91.6401 48.8547 91.1758C48.6346 90.9401 48.3872 90.7299 48.178 90.4852C47.5432 89.7349 47.3085 88.7345 47.1284 87.7666C46.801 86.0141 46.5827 84.1962 46.9829 82.46C47.1211 81.8673 47.3321 81.2801 47.3231 80.6729C47.314 79.8701 46.9592 78.9331 47.5195 78.3531C47.7516 78.1455 48.0336 78.0013 48.3381 77.9344C49.626 77.552 50.9667 77.378 52.3001 77.2095L58.4032 76.4138C59.1017 76.3214 59.8166 76.2326 60.4333 75.8864C61.261 75.4315 61.8104 74.5887 62.1469 73.7115C63.2184 74.4909 63.6186 75.9426 64.4735 76.9485C64.8901 77.4396 65.4049 77.8366 65.8615 78.2878C66.4198 78.8737 66.9313 79.5021 67.3914 80.1673C68.6647 81.909 69.9381 83.6634 70.8477 85.6172C71.3225 86.6321 71.6899 87.6905 72.0683 88.7435C73.5581 92.8885 75.9866 96.8232 76.9944 101.108C77.2418 102.155 77.8839 103.101 77.984 104.172C78.0968 105.309 77.5692 106.407 77.0217 107.418Z" fill="#859CAE"/>
<path opacity="0.1" d="M45.0601 72.9937C44.9105 73.2692 44.833 73.5777 44.8345 73.8908C44.9709 73.2203 45.8968 72.8487 45.9569 72.1854C45.9842 71.8791 45.9278 71.8936 45.7386 72.0549C45.4512 72.3032 45.3256 72.7309 45.0601 72.9937Z" fill="black"/>
<path opacity="0.1" d="M47.8815 75.0311C47.686 75.1956 47.5399 75.4107 47.4595 75.6527C47.302 75.9935 47.2717 76.3791 47.374 76.7402C47.5104 76.6767 47.5559 76.51 47.5977 76.365C47.6647 76.1391 47.762 75.9233 47.887 75.7234C47.9961 75.5422 48.5 75.138 48.4982 74.9477C48.4927 74.6559 48.0161 74.9278 47.8815 75.0311Z" fill="black"/>
<path opacity="0.1" d="M48.2071 52.5792C47.7792 52.9461 47.3076 53.259 46.8028 53.5108C45.4839 54.176 44.0232 54.5276 42.6952 55.1728C42.0401 55.5073 41.4037 55.8769 40.7888 56.2802L36.8414 58.7722C36.5242 58.9532 36.232 59.1743 35.9719 59.4301C35.4971 59.9339 35.4989 60.8202 35.0623 61.3603C34.6257 61.9004 33.8726 62.2049 33.1468 62.2411C32.4197 62.2454 31.6975 62.1227 31.013 61.8786C30.5984 61.7551 30.1914 61.6074 29.7942 61.4364C29.3787 61.2607 28.9855 61.0369 28.6227 60.7694C27.9187 60.2402 27.3493 59.47 27.2438 58.5946C27.1964 57.9939 27.2763 57.39 27.4785 56.8221C27.5877 56.4526 27.7283 56.0931 27.8987 55.7473C27.9957 55.5506 28.1076 55.3616 28.2334 55.1818C29.1429 53.9023 30.7383 53.3024 32.2827 53.007C33.094 52.8493 33.9199 52.7532 34.7403 52.6155C35.1329 52.7025 35.531 52.7631 35.9318 52.7967C37.1852 52.8855 38.4258 52.5502 39.6373 52.2168L40.958 51.8543C41.6202 51.6731 41.9512 50.8756 42.6207 50.736C42.9197 50.6932 43.2243 50.7086 43.5175 50.7814C44.8763 51.0387 46.2461 51.3704 47.4413 52.0591C47.7087 52.214 47.9647 52.3878 48.2071 52.5792Z" fill="black"/>
<path d="M51.4269 34.9734C51.2578 36.5774 49.8989 37.7555 49.0621 39.1419C48.6601 39.8143 48.3781 40.552 48.0161 41.2479C47.6013 42.0067 47.1395 42.7392 46.6336 43.4409L45.1547 45.5796C44.2851 46.8374 43.4065 48.106 42.295 49.159C40.3577 49.4871 38.7332 50.9207 36.896 51.6166C35.4261 52.173 33.8235 52.2492 32.2809 52.5482C30.7383 52.8472 29.1393 53.4544 28.2334 54.7231C27.8961 55.2234 27.6406 55.774 27.4766 56.3542C27.2733 56.9212 27.1939 57.5249 27.2438 58.1249C27.3548 58.9985 27.9169 59.767 28.6209 60.2998C29.3249 60.8326 30.1671 61.148 31.0112 61.409C31.6959 61.6522 32.418 61.7749 33.145 61.7715C33.8726 61.7352 34.6112 61.4561 35.0623 60.8906C35.5134 60.3252 35.4916 59.4643 35.9719 58.9604C36.2326 58.7046 36.5255 58.4835 36.8432 58.3025L40.7906 55.8105C41.4051 55.4098 42.0409 55.0426 42.6952 54.7104C44.0232 54.0634 45.4839 53.7136 46.8028 53.0484C48.1216 52.3833 49.3495 51.285 49.6133 49.8351C50.4173 45.3802 53.5116 41.6249 56.162 37.9458C56.0747 37.9276 56.102 37.7301 56.0693 37.6467C55.7309 36.7732 54.9778 36.1153 54.1301 35.7002C53.2824 35.2852 52.3365 35.1692 51.4269 34.9734Z" fill="#24456F"/>
<path d="M37.4708 35.0062C37.52 34.523 37.4244 34.0362 37.1961 33.6071C36.7577 32.8821 35.839 32.6266 35.0132 32.4562C34.214 32.2931 33.4111 32.1529 32.6047 32.0357C31.9425 31.9397 31.264 31.8545 30.6128 32.0031C29.7032 32.2006 28.9628 32.8005 28.1206 33.1739C27.1255 33.6161 26.0232 33.7321 24.9608 33.9768C23.8985 34.2215 22.8106 34.6365 22.1448 35.4956C21.6391 36.148 21.4372 36.9817 21.2862 37.7937C20.0256 44.5702 21.3826 51.5207 21.6409 58.4078C21.741 61.0883 21.6191 63.9537 20.082 66.1558L24.5588 66.038C25.7048 66.009 26.9364 65.9492 27.8332 65.2441C28.6263 64.6243 29.001 63.6257 29.3412 62.6796C29.6086 61.9347 29.8778 61.1753 29.9124 60.3851C29.9833 58.7666 29.0611 57.1772 29.3667 55.5841C29.5904 54.3952 30.4581 53.4346 31.3877 52.6535C32.3173 51.8723 33.3505 51.2035 34.1018 50.2466C35.4443 48.5556 35.7008 46.2449 35.5334 44.0972C35.4334 42.8194 35.2042 41.5417 35.3151 40.264C35.3988 39.3088 35.7026 38.3229 36.3302 37.578C37.036 36.7334 37.4089 36.2042 37.4708 35.0062Z" fill="#3F3D56"/>
<path opacity="0.1" d="M37.1961 33.607C36.765 32.8929 35.87 32.6355 35.0496 32.4651C35.4857 32.6198 35.8589 32.9126 36.1119 33.2988C36.3411 33.7277 36.4367 34.2148 36.3866 34.698C36.3247 35.8942 35.9518 36.4234 35.2387 37.2698C34.6111 38.0147 34.3074 38.9988 34.2237 39.9558C34.1127 41.2335 34.3419 42.5112 34.442 43.789C34.6093 45.9366 34.3528 48.2474 33.0122 49.9384C32.259 50.8881 31.2258 51.5696 30.2981 52.3453C29.3703 53.121 28.499 54.087 28.2752 55.2759C27.9751 56.869 28.8974 58.4585 28.8209 60.0769C28.7864 60.8671 28.5153 61.6265 28.2479 62.3714C27.9096 63.3175 27.533 64.3143 26.7399 64.9341C25.8303 65.6391 24.6061 65.7008 23.4655 65.7298L20.2948 65.8131C20.2239 65.9291 20.1511 66.0451 20.0729 66.1557L24.5497 66.0379C25.6957 66.0089 26.9273 65.9491 27.8241 65.244C28.6172 64.6242 28.9919 63.6256 29.3321 62.6795C29.5995 61.9346 29.8687 61.1752 29.9033 60.385C29.9743 58.7666 29.052 57.1771 29.3576 55.584C29.5813 54.3951 30.449 53.4345 31.3786 52.6534C32.3082 51.8722 33.3414 51.2035 34.0927 50.2465C35.4352 48.5556 35.6917 46.2448 35.5243 44.0971C35.4243 42.8193 35.1951 41.5416 35.306 40.2639C35.3897 39.3087 35.6935 38.3228 36.3211 37.5779C37.0342 36.7333 37.4126 36.2041 37.469 35.0061C37.5187 34.5231 37.4238 34.0362 37.1961 33.607Z" fill="black"/>
<path opacity="0.1" d="M70.8313 103.451L62.6144 123.415C62.1479 123.082 61.7579 122.654 61.4702 122.159C62.1305 119.67 62.809 117.14 64.1534 114.942C64.5918 114.217 65.0938 113.555 65.545 112.848C66.8529 110.8 67.1221 108.216 68.6156 106.299C68.7583 106.105 68.8353 105.872 68.8353 105.632C68.8353 105.392 68.7583 105.158 68.6156 104.965C68.4428 104.742 68.1681 104.53 68.219 104.254C68.2572 104.053 68.4683 103.872 68.3864 103.683C68.3482 103.593 68.2554 103.544 68.1827 103.478C67.928 103.245 67.9607 102.846 67.9389 102.503C67.8825 101.635 67.3604 100.872 66.8474 100.164C66.7451 99.9956 66.6096 99.85 66.4491 99.7358C66.3144 99.6543 66.1544 99.618 66.0198 99.5347C65.5432 99.2374 65.5777 98.5451 65.3485 98.0322C65.0502 97.3562 64.2989 97.0118 63.8059 96.4627C63.1783 95.7649 63.0182 94.7916 62.3506 94.1809L62.2942 94.0395L62.9346 90.1882L70.8313 103.451Z" fill="black"/>
</g>
<defs>
<linearGradient id="paint0_linear" x1="49.0803" y1="135.081" x2="49.0803" y2="26.2107" gradientUnits="userSpaceOnUse">
<stop stop-color="#808080" stop-opacity="0.25"/>
<stop offset="0.54" stop-color="#808080" stop-opacity="0.12"/>
<stop offset="1" stop-color="#808080" stop-opacity="0.1"/>
</linearGradient>
<clipPath id="clip0">
<rect width="124" height="136" fill="white" transform="translate(0.715839 0.0759277)"/>
</clipPath>
</defs>
</svg>
