<?xml version="1.0" encoding="utf-8"?>
<!-- Generator: Adobe Illustrator 23.0.3, SVG Export Plug-In . SVG Version: 6.00 Build 0)  -->
<svg version="1.1" id="Layer_1" xmlns="http://www.w3.org/2000/svg" xmlns:xlink="http://www.w3.org/1999/xlink" x="0px" y="0px"
	 viewBox="0 0 549.7 193.6" style="enable-background:new 0 0 549.7 193.6;" xml:space="preserve">
<style type="text/css">
	.st0{fill:url(#SVGID_1_);}
	.st1{fill:#FFFFFF;}
	.st2{fill:url(#SVGID_2_);}
	.st3{fill:url(#SVGID_3_);}
	.st4{fill:url(#SVGID_4_);}
	.st5{fill:url(#SVGID_5_);}
</style>
<g>
	
		<linearGradient id="SVGID_1_" gradientUnits="userSpaceOnUse" x1="357.6281" y1="494.3286" x2="224.3901" y2="801.7226" gradientTransform="matrix(1 0 0 1 0 -588.871)">
		<stop  offset="0" style="stop-color:#00B493;stop-opacity:0.39"/>
		<stop  offset="1" style="stop-color:#10BB40;stop-opacity:0.41"/>
	</linearGradient>
	<path class="st0" d="M-0.9-6.9h551.3c3.4,0,6.1,2.9,6.1,6.4v194.6c0,3.5-2.8,6.4-6.1,6.4H-0.9c-3.4,0-6.1-2.9-6.1-6.4V-0.5
		C-7.1-4-4.4-6.9-0.9-6.9z"/>
</g>
<path class="st1" d="M437,88.6c24,37.5,70,52.6,112.6,53.3V0h-220C394.4,31.4,413,51.1,437,88.6z"/>
<linearGradient id="SVGID_2_" gradientUnits="userSpaceOnUse" x1="426.7674" y1="726.3088" x2="452.8044" y2="591.4067" gradientTransform="matrix(1 0 0 1 0 -588.871)">
	<stop  offset="0" style="stop-color:#0BC8A6;stop-opacity:0.39"/>
	<stop  offset="1" style="stop-color:#10BB40;stop-opacity:0.45"/>
</linearGradient>
<path class="st2" d="M437,88.6c24,37.5,70,52.6,112.6,53.3V0h-220C394.4,31.4,413,51.1,437,88.6z"/>
<path class="st1" d="M76.5,133.2C60.1,107.6,28.7,97.3-0.3,96.8v96.8h150.1C105.6,172.2,92.9,158.8,76.5,133.2z"/>
<linearGradient id="SVGID_3_" gradientUnits="userSpaceOnUse" x1="83.4994" y1="688.7392" x2="65.7345" y2="780.7812" gradientTransform="matrix(1 0 0 1 0 -588.871)">
	<stop  offset="0" style="stop-color:#0BC8A6;stop-opacity:0.39"/>
	<stop  offset="1" style="stop-color:#10BB40;stop-opacity:0.45"/>
</linearGradient>
<path class="st3" d="M76.5,133.2C60.1,107.6,28.7,97.3-0.3,96.8v96.8h150.1C105.6,172.2,92.9,158.8,76.5,133.2z"/>
<circle class="st1" cx="149.2" cy="49.4" r="13.1"/>
<linearGradient id="SVGID_4_" gradientUnits="userSpaceOnUse" x1="152.6988" y1="626.5772" x2="145.5828" y2="650.3607" gradientTransform="matrix(1 0 0 1 0 -588.871)">
	<stop  offset="0" style="stop-color:#0BC8A6;stop-opacity:0.39"/>
	<stop  offset="1" style="stop-color:#10BB40;stop-opacity:0.45"/>
</linearGradient>
<circle class="st4" cx="149.2" cy="49.4" r="13.1"/>
<circle class="st1" cx="370.5" cy="153.6" r="7.6"/>
<linearGradient id="SVGID_5_" gradientUnits="userSpaceOnUse" x1="372.5116" y1="735.7481" x2="368.4186" y2="749.4271" gradientTransform="matrix(1 0 0 1 0 -588.871)">
	<stop  offset="0" style="stop-color:#0BC8A6;stop-opacity:0.39"/>
	<stop  offset="1" style="stop-color:#10BB40;stop-opacity:0.45"/>
</linearGradient>
<circle class="st5" cx="370.5" cy="153.6" r="7.6"/>
</svg>
