<svg xmlns="http://www.w3.org/2000/svg" viewBox="0 0 532 323"><defs/><linearGradient id="a" x1="439.5" x2="160.6" y1="403.5" y2="30.1" gradientTransform="matrix(1 0 0 -1 0 332)" gradientUnits="userSpaceOnUse"><stop offset="0" stop-color="#00b493" stop-opacity=".4"/><stop offset="1" stop-color="#10bb40" stop-opacity=".4"/></linearGradient><path fill="url(#a)" d="M0 0h532v323H0V0z"/><path fill="#fff" d="M531 0H175c82 93 150 102 224 102s132 75 132 75V0z"/><linearGradient id="b" x1="365.6" x2="340.3" y1="328" y2="157.7" gradientTransform="matrix(1 0 0 -1 0 332)" gradientUnits="userSpaceOnUse"><stop offset="0" stop-color="#0bc8a6" stop-opacity=".4"/><stop offset="1" stop-color="#10bb40" stop-opacity=".5"/></linearGradient><path fill="url(#b)" d="M531 0H175c82 93 150 102 224 102s132 75 132 75V0z"/><path fill="#fff" d="M0 323h203c-46-53-85-58-127-58S0 222 0 222v101z"/><linearGradient id="c" x1="94.5" x2="109.3" y1="12" y2="109.5" gradientTransform="matrix(1 0 0 -1 0 332)" gradientUnits="userSpaceOnUse"><stop offset="0" stop-color="#0bc8a6" stop-opacity=".4"/><stop offset="1" stop-color="#10bb40" stop-opacity=".5"/></linearGradient><path fill="url(#c)" d="M0 323h203c-46-53-85-58-127-58S0 222 0 222v101z"/><ellipse cx="373.5" cy="220" fill="#c4f1d0" rx="7.5" ry="7.6"/><ellipse cx="63" cy="50.8" fill="#c4f1d0" rx="19" ry="19.2"/></svg>