<svg xmlns="http://www.w3.org/2000/svg" viewBox="0 0 521.7 602.6"><defs/><switch><g><linearGradient id="a" x1="588.73" x2="63.17" y1="540.57" y2="170.99" gradientTransform="matrix(1 0 0 -1 0 612.75)" gradientUnits="userSpaceOnUse"><stop offset="0" stop-color="#00b493" stop-opacity=".39"/><stop offset="1" stop-color="#10bb40" stop-opacity=".41"/></linearGradient><path fill="url(#a)" d="M-6.3-3.6c0-3.4 2.8-6.2 6.1-6.2H528v622.2H-.2c-3.4 0-6.1-2.8-6.1-6.2V-3.6z"/><path fill="#fff" d="M396.6 166.1C438.8 43 469 38.1 521.7 4.2v598.4h-416s61.8-129.5 161.6-193 87.1-120.5 129.3-243.5z"/><linearGradient id="b" x1="527.94" x2="313.67" y1="508.03" y2="10.19" gradientTransform="matrix(1 0 0 -1 0 612.75)" gradientUnits="userSpaceOnUse"><stop offset="0" stop-color="#0bc8a6" stop-opacity=".39"/><stop offset="1" stop-color="#10bb40" stop-opacity=".45"/></linearGradient><path fill="url(#b)" d="M396.6 166.1C438.8 43 469 38.1 521.7 4.2v598.4h-416s61.8-129.5 161.6-193 87.1-120.5 129.3-243.5z"/><circle cx="211" cy="58.9" r="18.7" fill="#fff"/><linearGradient id="c" x1="215.99" x2="205.88" y1="570.48" y2="536.7" gradientTransform="matrix(1 0 0 -1 0 612.75)" gradientUnits="userSpaceOnUse"><stop offset="0" stop-color="#0bc8a6" stop-opacity=".39"/><stop offset="1" stop-color="#10bb40" stop-opacity=".45"/></linearGradient><circle cx="211" cy="58.9" r="18.7" fill="url(#c)"/><circle cx="83.6" cy="365.3" r="13.4" fill="#fff"/><linearGradient id="d" x1="87.18" x2="79.95" y1="259.36" y2="235.19" gradientTransform="matrix(1 0 0 -1 0 612.75)" gradientUnits="userSpaceOnUse"><stop offset="0" stop-color="#0bc8a6" stop-opacity=".39"/><stop offset="1" stop-color="#10bb40" stop-opacity=".45"/></linearGradient><circle cx="83.6" cy="365.3" r="13.4" fill="url(#d)"/></g></switch></svg>