<?xml version="1.0" encoding="utf-8"?>
<!-- Generator: Adobe Illustrator 25.0.0, SVG Export Plug-In . SVG Version: 6.00 Build 0)  -->
<svg version="1.1"
	 id="svg2" xmlns:cc="http://creativecommons.org/ns#" xmlns:dc="http://purl.org/dc/elements/1.1/" xmlns:rdf="http://www.w3.org/1999/02/22-rdf-syntax-ns#" xmlns:svg="http://www.w3.org/2000/svg"
	 xmlns="http://www.w3.org/2000/svg" xmlns:xlink="http://www.w3.org/1999/xlink" x="0px" y="0px" viewBox="0 0 170.6 84.9"
	 style="enable-background:new 0 0 170.6 84.9;" xml:space="preserve">
<style type="text/css">
	.st0{fill:#057907;}
</style>
<g id="g10" transform="matrix(1.3333333,0,0,-1.3333333,0,793.70076)">
	<g id="g12" transform="scale(1,-1)">
		<path id="path14" d="M81-534.4v1.1h-4.2c0-0.4,0.2-0.8,0.4-1.2c0.2-0.4,0.7-0.9,1.3-1.5c0.5-0.5,0.9-0.8,1-1
			c0.2-0.2,0.2-0.5,0.2-0.7c0-0.3-0.1-0.5-0.2-0.6c-0.1-0.1-0.3-0.2-0.6-0.2c-0.3,0-0.5,0.1-0.6,0.2s-0.2,0.4-0.3,0.7l-1.2-0.1
			c0.1-0.7,0.3-1.1,0.7-1.4c0.4-0.3,0.8-0.4,1.4-0.4c0.6,0,1.1,0.2,1.5,0.5s0.5,0.7,0.5,1.2c0,0.3-0.1,0.5-0.2,0.8
			c-0.1,0.3-0.3,0.5-0.5,0.8c-0.1,0.2-0.4,0.5-0.8,0.8c-0.4,0.3-0.6,0.6-0.7,0.7s-0.2,0.2-0.2,0.3H81L81-534.4z"/>
		<path id="path16" d="M83.8-538.6c-0.1,0-0.3,0-0.4,0.1c-0.1,0.1-0.2,0.3-0.3,0.5c-0.1,0.3-0.1,0.8-0.1,1.6c0,0.7,0,1.2,0.1,1.5
			c0.1,0.3,0.2,0.5,0.3,0.5c0.1,0.1,0.2,0.1,0.4,0.1s0.3,0,0.4-0.1s0.2-0.3,0.3-0.5c0.1-0.3,0.1-0.8,0.1-1.6c0-0.7,0-1.2-0.1-1.5
			c-0.1-0.3-0.2-0.5-0.3-0.6C84.1-538.6,83.9-538.6,83.8-538.6z M83.8-539.6c0.6,0,1.1,0.2,1.4,0.6c0.4,0.5,0.6,1.4,0.6,2.5
			c0,1.2-0.2,2-0.6,2.5c-0.3,0.4-0.8,0.6-1.4,0.6c-0.6,0-1.1-0.2-1.5-0.7c-0.4-0.5-0.6-1.3-0.6-2.5c0-1.2,0.2-2,0.6-2.5
			C82.7-539.4,83.2-539.6,83.8-539.6z"/>
		<path id="path18" d="M88.6-538.6c-0.1,0-0.3,0-0.4,0.1c-0.1,0.1-0.2,0.3-0.3,0.5c-0.1,0.3-0.1,0.8-0.1,1.6c0,0.7,0,1.2,0.1,1.5
			c0.1,0.3,0.2,0.5,0.3,0.5c0.1,0.1,0.2,0.1,0.4,0.1s0.3,0,0.4-0.1s0.2-0.3,0.3-0.5c0.1-0.3,0.1-0.8,0.1-1.6c0-0.7,0-1.2-0.1-1.5
			c-0.1-0.3-0.2-0.5-0.3-0.6C88.9-538.6,88.8-538.6,88.6-538.6z M88.6-539.6c0.6,0,1.1,0.2,1.4,0.6c0.4,0.5,0.6,1.4,0.6,2.5
			c0,1.2-0.2,2-0.6,2.5c-0.3,0.4-0.8,0.6-1.4,0.6c-0.6,0-1.1-0.2-1.5-0.7c-0.4-0.5-0.6-1.3-0.6-2.5c0-1.2,0.2-2,0.6-2.5
			C87.6-539.4,88-539.6,88.6-539.6z"/>
		<path id="path20" d="M95.5-534.4v1.1h-4.2c0-0.4,0.2-0.8,0.4-1.2c0.2-0.4,0.7-0.9,1.3-1.5c0.5-0.5,0.9-0.8,1-1
			c0.2-0.2,0.2-0.5,0.2-0.7c0-0.3-0.1-0.5-0.2-0.6c-0.1-0.1-0.3-0.2-0.6-0.2c-0.3,0-0.5,0.1-0.6,0.2s-0.2,0.4-0.3,0.7l-1.2-0.1
			c0.1-0.7,0.3-1.1,0.7-1.4c0.4-0.3,0.8-0.4,1.4-0.4c0.6,0,1.1,0.2,1.5,0.5s0.5,0.7,0.5,1.2c0,0.3-0.1,0.5-0.2,0.8
			c-0.1,0.3-0.3,0.5-0.5,0.8c-0.1,0.2-0.4,0.5-0.8,0.8c-0.4,0.3-0.6,0.6-0.7,0.7s-0.2,0.2-0.2,0.3H95.5L95.5-534.4z"/>
		<path id="path22" d="M95.9-533.2l1.5-6.5h0.9l-1.6,6.5H95.9z"/>
		<path id="path24" d="M101.4-537.4c0-0.4-0.1-0.7-0.3-0.9c-0.2-0.2-0.4-0.3-0.6-0.3c-0.2,0-0.4,0.1-0.5,0.3s-0.2,0.5-0.2,0.9
			c0,0.4,0.1,0.7,0.2,0.9c0.2,0.2,0.4,0.3,0.6,0.3c0.2,0,0.4-0.1,0.6-0.3C101.4-536.8,101.4-537,101.4-537.4z M98.8-534.8l1.2-0.1
			c0,0.2,0.1,0.4,0.2,0.5s0.3,0.2,0.5,0.2c0.2,0,0.5-0.1,0.6-0.3c0.2-0.2,0.3-0.7,0.3-1.4c-0.3,0.3-0.7,0.5-1.1,0.5
			c-0.5,0-0.9-0.2-1.3-0.6c-0.4-0.4-0.5-0.9-0.5-1.5c0-0.6,0.2-1.1,0.6-1.5c0.4-0.4,0.9-0.6,1.4-0.6c0.6,0,1.1,0.2,1.6,0.7
			c0.4,0.5,0.6,1.3,0.6,2.4c0,1.1-0.2,2-0.6,2.5c-0.4,0.5-1,0.8-1.6,0.8c-0.5,0-0.9-0.1-1.2-0.4C99-533.9,98.8-534.2,98.8-534.8z"/>
		<path id="path26" d="M103.6-534.9l1.2-0.1c0,0.3,0.1,0.5,0.3,0.6c0.2,0.2,0.4,0.2,0.6,0.2c0.2,0,0.5-0.1,0.6-0.3
			c0.2-0.2,0.3-0.5,0.3-0.9c0-0.4-0.1-0.7-0.3-0.9c-0.2-0.2-0.4-0.3-0.7-0.3c-0.3,0-0.7,0.2-0.9,0.5l-1-0.1l0.6-3.3h3.2v1.1h-2.3
			l-0.2,1.1c0.3-0.1,0.5-0.2,0.8-0.2c0.5,0,1,0.2,1.4,0.6s0.6,0.9,0.6,1.5c0,0.5-0.1,1-0.4,1.4c-0.4,0.6-1,0.8-1.7,0.8
			c-0.6,0-1-0.2-1.4-0.5C103.9-534,103.7-534.4,103.6-534.9L103.6-534.9z"/>
		<path id="path28" d="M108-533.2l1.5-6.5h0.9l-1.6,6.5H108z"/>
		<path id="path30" d="M111.1-533.3v-6.2h4.6v1h-3.3v1.4h3.1v1h-3.1v1.7h3.5v1H111.1z"/>
		<path id="path32" d="M120.9-535.6l1.2,0.4c-0.2,0.7-0.5,1.2-0.9,1.5c-0.4,0.3-1,0.5-1.7,0.5c-0.8,0-1.5-0.3-2-0.8
			c-0.5-0.6-0.8-1.3-0.8-2.3c0-1,0.3-1.8,0.8-2.4c0.5-0.6,1.2-0.9,2.1-0.9c0.8,0,1.4,0.2,1.9,0.7c0.3,0.3,0.5,0.7,0.6,1.2l-1.2,0.3
			c-0.1-0.3-0.2-0.6-0.5-0.8c-0.2-0.2-0.5-0.3-0.9-0.3c-0.5,0-0.8,0.2-1.1,0.5s-0.4,0.9-0.4,1.6c0,0.8,0.1,1.4,0.4,1.7
			c0.3,0.3,0.7,0.5,1.1,0.5c0.3,0,0.6-0.1,0.9-0.3C120.6-534.8,120.8-535.2,120.9-535.6z"/>
		<path id="path34" class="st0" d="M1.5-559.8c0,0,8.7-6.3,10.8-3.8c2.1,2.4,6.6,12.2,6.6,12.2s19.9-29.7,38-41.9
			c0,0,3.1-2.1,3.8-0.7c0.7,1.4-4.9,5.5-11.5,12.9c-10.2,11.4-21.6,26.2-23.7,35.3l-10.8,9.1C14.8-536.8,7.8-555.7,1.5-559.8z"/>
		<path id="path36" d="M28-557.5h3.5c0.4,0,1.1-0.1,2.2-0.4c0.5-0.1,1-0.4,1.3-0.8c0.3-0.5,0.5-1,0.5-1.6c0-0.9-0.3-1.5-0.8-2
			c-0.5-0.5-1.6-0.7-3.1-0.7H28V-557.5z M19.6-541.6v-26.7h13.8c2.6,0,4.5,0.2,5.9,0.7s2.4,1.2,3.3,2.4c0.8,1.2,1.2,2.6,1.2,4.3
			c0,1.5-0.3,2.8-0.9,3.8s-1.5,1.9-2.6,2.6c-0.7,0.4-1.7,0.8-2.9,1.1c1,0.3,1.7,0.7,2.1,1c0.3,0.2,0.7,0.7,1.3,1.4
			c0.6,0.7,1,1.3,1.2,1.7l4,7.7h-9.3l-4.4-8.1c-0.6-1.1-1.1-1.7-1.5-2.1c-0.6-0.4-1.3-0.6-2-0.6H28v10.8H19.6L19.6-541.6z"/>
		<path id="path38" d="M53.6-551.3c0,1.7,0.4,3,1.1,3.8s1.6,1.2,2.6,1.2c1.1,0,2-0.4,2.6-1.2s1-2.1,1-3.9c0-1.7-0.3-2.9-1-3.7
			c-0.7-0.8-1.6-1.2-2.6-1.2c-1.1,0-2,0.4-2.7,1.2C54-554.2,53.6-553,53.6-551.3z M46.2-551.3c0-3,1-5.4,3-7.3
			c2-1.9,4.7-2.9,8.1-2.9c3.9,0,6.8,1.1,8.8,3.4c1.6,1.8,2.4,4,2.4,6.7c0,3-1,5.4-3,7.3c-2,1.9-4.7,2.9-8.2,2.9
			c-3.1,0-5.6-0.8-7.6-2.4C47.4-545.5,46.2-548.1,46.2-551.3z"/>
		<path id="path40" d="M72.5-568.3h8.2v9.3h9v-9.3h8.3v26.7h-8.3v-10.8h-9v10.8h-8.2V-568.3z"/>
		<path id="path42" d="M102.1-550.5l7.9-0.5c0.2,1.3,0.5,2.3,1,2.9c0.8,1.1,2.1,1.6,3.6,1.6c1.2,0,2.1-0.3,2.7-0.8s1-1.2,1-1.9
			c0-0.7-0.3-1.3-0.9-1.8c-0.6-0.5-2-1.1-4.2-1.5c-3.6-0.8-6.2-1.9-7.7-3.2c-1.6-1.3-2.3-3.1-2.3-5.1c0-1.4,0.4-2.7,1.2-3.9
			s2-2.2,3.6-2.9c1.6-0.7,3.8-1,6.6-1c3.4,0,6,0.6,7.8,1.9c1.8,1.3,2.9,3.3,3.2,6.1l-7.8,0.5c-0.2-1.2-0.6-2.1-1.3-2.6
			c-0.7-0.5-1.6-0.8-2.7-0.8c-1,0-1.7,0.2-2.2,0.6c-0.5,0.4-0.7,0.9-0.7,1.5c0,0.4,0.2,0.8,0.6,1.1c0.4,0.4,1.3,0.7,2.8,1
			c3.6,0.8,6.2,1.6,7.7,2.3c1.6,0.8,2.7,1.8,3.4,3s1.1,2.5,1.1,3.9c0,1.7-0.5,3.3-1.4,4.7c-0.9,1.4-2.3,2.5-4,3.3
			c-1.7,0.7-3.8,1.1-6.4,1.1c-4.5,0-7.7-0.9-9.4-2.6S102.4-547.8,102.1-550.5L102.1-550.5z"/>
	</g>
</g>
</svg>
