<svg xmlns="http://www.w3.org/2000/svg" xmlns:xlink="http://www.w3.org/1999/xlink" version="1.1" style="" xml:space="preserve" width="259" height="100"><rect id="backgroundrect" width="100%" height="100%" x="0" y="0" fill="none" stroke="none" class="" style=""/>
<style type="text/css">
	.st0{fill:#405A69;}
	.st1{fill:#FCB016;}
</style>




<g class="currentLayer" style=""><title>Layer 1</title><g id="svg_46" class="">
	<polygon class="st0" points="107.34525299072266,83.99998474121094 117.54524993896484,25.999984741210938 136.54524993896484,25.999984741210938 126.34525299072266,83.99998474121094 " id="svg_47"/>
	<path class="st0" d="M168.64525299072267,52.399996948242176 c4.4,0 8,-1.8 8.8,-6.8 c0.9,-5.4 -5,-6.1 -9.1,-6.1 h-5.4 l-2.3,12.9 H168.64525299072267 zM136.14525299072267,83.9999969482422 l10.2,-58 h27.9 c16.7,0 23.4,7.7 21.3,19.6 c-2.2,12.5 -11,20.4 -27.7,20.4 h-9.6 l-3.2,18 H136.14525299072267 z" id="svg_48"/>
	<path class="st0" d="M240.14525299072267,48.099996948242165 c0.5,-6.1 -2.7,-9.5 -8.6,-9.5 c-6.7,0 -11.7,5.7 -13.7,16.9 c-1.4,8.1 -1,15.8 8.7,15.8 c6.1,0 9.8,-4.3 11.5,-9.8 h18.3 c-4.3,15 -16.6,24 -31.9,24 c-19.2,0 -28.7,-11.8 -25.4,-30.6 c3.3,-18.8 18.1,-30.4 34.3,-30.4 c17.7,0 26.1,8.8 25,23.7 H240.14525299072267 z" id="svg_49"/>
</g><g id="svg_50" class="">
	<path class="st1" d="M23.845252990722656,47.79999694824221 c19.3,-32.7 95.2,-27.8 95.2,-27.8 l2.8,-15.3 c-0.5,0 -1.4,0.1 -2,0.1 C67.34525299072266,4.799996948242182 25.645252990722653,23.79999694824221 23.845252990722656,47.79999694824221 " id="svg_51"/>
	<path class="st0" d="M153.14525299072267,94.29999694824221 c-8.9,1.4 -16.4,2.1 -26.8,2.1 c-56.1,0 -103,-21.3 -104.7,-47.6 c-1.7000000000000002,-26.3 42.5,-47.6 98.6,-47.6 c0.6000000000000001,0 1.1,0 1.7000000000000002,0 l0.1,-0.5 c-5.9,-0.5 -12,-0.7000000000000001 -18.2,-0.7000000000000001 c-59.1,0 -105.5,22.4 -103.8,50 c1.8,27.6 51.1,50 110.1,50 c16.5,0 29.3,-1.8 42.8,-4.9 L153.14525299072267,94.29999694824221 z" id="svg_52"/>
</g></g></svg>