<svg xmlns="http://www.w3.org/2000/svg" fill="none" width="1224" height="661" viewBox="0 0 1224 661"><defs/><path fill="#A9F2BD" fill-opacity=".17" d="M940.96 567.98c260.56 46.9 449.07-14.39 595.36-202.4l-17.1-275.2c10.66 171.57-146.9-81.25-605.6 37.64-458.7 118.88-1078.39-23.37-1078.39-23.37l24.6 395.8c280.38-72.3 820.56 20.63 1081.13 67.53z"/><path fill="#4CDD74" fill-opacity=".25" d="M329.96 257.97C71.3 276.8-111.41 341.3-246.67 466.42l29.63 144.18c-18.47-89.89 148.37 18.68 594.36-122.11 445.98-140.8 1062.55-169.14 1062.55-169.14l-42.6-207.38c-272.62 85.86-808.65 127.18-1067.31 146z"/></svg>