<svg width="54" height="57" viewBox="0 0 54 57" fill="none" xmlns="http://www.w3.org/2000/svg">
<path d="M52.9605 30.1796C52.5016 30.1796 52.1296 30.5517 52.1296 31.0105V53.4655C52.1296 54.3095 51.4429 54.9961 50.5989 54.9961H31.0311C30.1871 54.9961 29.5005 54.3094 29.5005 53.4655V51.2571C29.5005 50.7982 29.1285 50.4261 28.6696 50.4261C28.2107 50.4261 27.8386 50.7982 27.8386 51.2571V53.4655C27.8386 54.0198 27.9808 54.5414 28.2304 54.9961H2.91757C2.76487 54.9961 2.64059 54.8718 2.64059 54.7191V34.6727C2.64059 34.2138 2.26852 33.8417 1.80964 33.8417C1.35077 33.8417 0.978699 34.2137 0.978699 34.6727V54.7192C0.978699 55.7882 1.84845 56.6579 2.91746 56.6579H50.5988C52.3591 56.6579 53.7912 55.2258 53.7912 53.4655V31.0105C53.7913 30.5517 53.4194 30.1796 52.9605 30.1796Z" fill="#C4F2D0"/>
<path d="M50.5998 17.8895H42.5676V11.1725C42.568 10.9543 42.4783 10.7389 42.3241 10.5848L32.028 0.288753C31.874 0.134506 31.6586 0.0448322 31.4403 0.0452745H2.91847C1.84946 0.0452745 0.979706 0.915031 0.979706 1.98404V31.349C0.979706 31.8078 1.35178 32.1799 1.81065 32.1799C2.26952 32.1799 2.6416 31.8078 2.6416 31.349V1.98404C2.6416 1.83134 2.76588 1.70705 2.91858 1.70705H30.6095V8.95668C30.6095 10.6366 31.9762 12.0034 33.6562 12.0034H40.9058V17.8894H31.0321C29.2718 17.8894 27.8396 19.3216 27.8396 21.0819V21.2119H14.6728C14.2139 21.2119 13.8418 21.5838 13.8418 22.0428C13.8418 22.5017 14.2139 22.8738 14.6728 22.8738H27.8396V28.5178H14.6728C14.2139 28.5178 13.8418 28.8899 13.8418 29.3487C13.8418 29.8076 14.2139 30.1797 14.6728 30.1797H27.8396V35.8237H14.6728C14.2139 35.8237 13.8418 36.1958 13.8418 36.6546C13.8418 37.1135 14.2139 37.4856 14.6728 37.4856H27.8396V43.1297H14.6728C14.2139 43.1297 13.8418 43.5017 13.8418 43.9607C13.8418 44.4196 14.2139 44.7916 14.6728 44.7916H27.8396V47.9336C27.8396 48.3925 28.2116 48.7646 28.6706 48.7646C29.1296 48.7646 29.5015 48.3925 29.5015 47.9336V21.0819C29.5015 20.2379 30.1882 19.5513 31.0321 19.5513H50.5999C51.4439 19.5513 52.1306 20.238 52.1306 21.0819V27.6868C52.1306 28.1457 52.5026 28.5178 52.9615 28.5178C53.4204 28.5178 53.7924 28.1458 53.7924 27.6868V21.0819C53.7922 19.3217 52.3601 17.8895 50.5998 17.8895ZM32.2712 8.95668V2.88221L39.7306 10.3416H33.656C32.8924 10.3416 32.2712 9.7204 32.2712 8.95668Z" fill="#C4F2D0"/>
<path d="M49.7243 23.6593C49.7243 22.5902 48.8545 21.7205 47.7855 21.7205H33.9893C32.9203 21.7205 32.0505 22.5902 32.0505 23.6593V28.3508C32.0505 29.4198 32.9203 30.2896 33.9893 30.2896H47.7855C48.8545 30.2896 49.7243 29.4198 49.7243 28.3508V23.6593ZM48.0625 28.3507C48.0625 28.5034 47.9382 28.6277 47.7855 28.6277H33.9893C33.8366 28.6277 33.7123 28.5034 33.7123 28.3507V23.6591C33.7123 23.5064 33.8366 23.3822 33.9893 23.3822H47.7855C47.9382 23.3822 48.0625 23.5064 48.0625 23.6591V28.3507Z" fill="#C4F2D0"/>
<path d="M32.0505 37.1133C32.0505 38.1362 32.8828 38.9685 33.9057 38.9685H35.4879C36.5108 38.9685 37.343 38.1362 37.343 37.1133V35.5312C37.343 34.5082 36.5108 33.676 35.4879 33.676H33.9057C32.8828 33.676 32.0505 34.5083 32.0505 35.5312V37.1133ZM33.7123 35.5313C33.7123 35.4247 33.7991 35.3379 33.9057 35.3379H35.4879C35.5945 35.3379 35.6813 35.4247 35.6813 35.5313V37.1134C35.6813 37.22 35.5945 37.3068 35.4879 37.3068H33.9057C33.7991 37.3068 33.7123 37.22 33.7123 37.1134V35.5313Z" fill="#C4F2D0"/>
<path d="M43.5337 35.5313C43.5337 34.5083 42.7014 33.6761 41.6785 33.6761H40.0963C39.0735 33.6761 38.2412 34.5084 38.2412 35.5313V37.1135C38.2412 38.1364 39.0735 38.9687 40.0963 38.9687H41.6785C42.7014 38.9687 43.5337 38.1364 43.5337 37.1135V35.5313ZM41.8718 37.1134C41.8718 37.22 41.785 37.3068 41.6784 37.3068H40.0963C39.9898 37.3068 39.903 37.22 39.903 37.1134V35.5312C39.903 35.4246 39.9898 35.3378 40.0963 35.3378H41.6785C41.7851 35.3378 41.8719 35.4246 41.8719 35.5312V37.1134H41.8718Z" fill="#C4F2D0"/>
<path d="M49.7243 35.5313C49.7243 34.5083 48.8921 33.6761 47.8692 33.6761H46.287C45.2641 33.6761 44.4318 34.5084 44.4318 35.5313V37.1135C44.4318 38.1364 45.2641 38.9687 46.287 38.9687H47.8692C48.8921 38.9687 49.7243 38.1364 49.7243 37.1135V35.5313ZM48.0625 37.1134C48.0625 37.22 47.9758 37.3068 47.8692 37.3068H46.287C46.1804 37.3068 46.0936 37.22 46.0936 37.1134V35.5312C46.0936 35.4246 46.1804 35.3378 46.287 35.3378H47.8692C47.9758 35.3378 48.0625 35.4246 48.0625 35.5312V37.1134Z" fill="#C4F2D0"/>
<path d="M32.0505 43.8882C32.0505 44.9111 32.8828 45.7434 33.9057 45.7434H35.4879C36.5108 45.7434 37.343 44.9111 37.343 43.8882V42.306C37.343 41.2831 36.5108 40.4508 35.4879 40.4508H33.9057C32.8828 40.4508 32.0505 41.283 32.0505 42.306V43.8882ZM33.7123 42.306C33.7123 42.1994 33.7991 42.1126 33.9057 42.1126H35.4879C35.5945 42.1126 35.6813 42.1993 35.6813 42.306V43.8882C35.6813 43.9948 35.5945 44.0816 35.4879 44.0816H33.9057C33.7991 44.0816 33.7123 43.9948 33.7123 43.8882V42.306Z" fill="#C4F2D0"/>
<path d="M43.5337 42.306C43.5337 41.2831 42.7014 40.4508 41.6785 40.4508H40.0963C39.0735 40.4508 38.2412 41.283 38.2412 42.306V43.8882C38.2412 44.9111 39.0735 45.7434 40.0963 45.7434H41.6785C42.7014 45.7434 43.5337 44.9111 43.5337 43.8882V42.306ZM41.8718 43.8882C41.8718 43.9948 41.785 44.0816 41.6784 44.0816H40.0963C39.9898 44.0816 39.903 43.9948 39.903 43.8882V42.306C39.903 42.1994 39.9898 42.1126 40.0963 42.1126H41.6785C41.7851 42.1126 41.8719 42.1993 41.8719 42.306V43.8882H41.8718Z" fill="#C4F2D0"/>
<path d="M32.0505 50.6629C32.0505 51.6858 32.8828 52.5181 33.9057 52.5181H35.4879C36.5108 52.5181 37.343 51.6858 37.343 50.6629V49.0807C37.343 48.0578 36.5108 47.2256 35.4879 47.2256H33.9057C32.8828 47.2256 32.0505 48.0577 32.0505 49.0807V50.6629ZM33.7123 49.0809C33.7123 48.9743 33.7991 48.8875 33.9057 48.8875H35.4879C35.5945 48.8875 35.6813 48.9742 35.6813 49.0809V50.663C35.6813 50.7696 35.5945 50.8564 35.4879 50.8564H33.9057C33.7991 50.8564 33.7123 50.7696 33.7123 50.663V49.0809Z" fill="#C4F2D0"/>
<path d="M41.6784 47.2257H40.0963C39.0735 47.2257 38.2412 48.0579 38.2412 49.0809V50.663C38.2412 51.6859 39.0735 52.5182 40.0963 52.5182H41.6785C42.7014 52.5182 43.5337 51.6859 43.5337 50.663V49.0809C43.5337 48.0579 42.7014 47.2257 41.6784 47.2257ZM41.8718 50.6629C41.8718 50.7695 41.785 50.8563 41.6784 50.8563H40.0963C39.9898 50.8563 39.903 50.7695 39.903 50.6629V49.0808C39.903 48.9742 39.9898 48.8874 40.0963 48.8874H41.6785C41.7851 48.8874 41.8719 48.9741 41.8719 49.0808V50.6629H41.8718Z" fill="#C4F2D0"/>
<path d="M47.7123 40.4508H46.4439C45.3344 40.4508 44.4318 41.3534 44.4318 42.4629V50.5061C44.4318 51.6156 45.3344 52.5182 46.4439 52.5182H47.7123C48.8217 52.5182 49.7243 51.6156 49.7243 50.5061V42.4629C49.7243 41.3534 48.8217 40.4508 47.7123 40.4508ZM48.0625 50.5061C48.0625 50.6993 47.9054 50.8564 47.7123 50.8564H46.4439C46.2507 50.8564 46.0936 50.6993 46.0936 50.5061V42.4629C46.0936 42.2697 46.2507 42.1127 46.4439 42.1127H47.7123C47.9054 42.1127 48.0625 42.2699 48.0625 42.4629V50.5061Z" fill="#C4F2D0"/>
<path d="M7.61577 15.5678H10.9326C11.3915 15.5678 11.7635 15.1959 11.7635 14.7369C11.7635 14.278 11.3916 13.9059 10.9326 13.9059H7.61577C7.15689 13.9059 6.78482 14.278 6.78482 14.7369C6.78482 15.1958 7.15689 15.5678 7.61577 15.5678Z" fill="#C4F2D0"/>
<path d="M14.6718 15.5678H30.6638C31.1227 15.5678 31.4947 15.1959 31.4947 14.7369C31.4947 14.278 31.1227 13.9059 30.6638 13.9059H14.6718C14.2129 13.9059 13.8409 14.278 13.8409 14.7369C13.841 15.1958 14.2129 15.5678 14.6718 15.5678Z" fill="#C4F2D0"/>
<path d="M7.61577 22.8737H10.9326C11.3915 22.8737 11.7635 22.5016 11.7635 22.0427C11.7635 21.5839 11.3916 21.2118 10.9326 21.2118H7.61577C7.15689 21.2118 6.78482 21.5838 6.78482 22.0427C6.78482 22.5017 7.15689 22.8737 7.61577 22.8737Z" fill="#C4F2D0"/>
<path d="M7.61577 30.1796H10.9326C11.3915 30.1796 11.7635 29.8075 11.7635 29.3487C11.7635 28.8898 11.3916 28.5177 10.9326 28.5177H7.61577C7.15689 28.5177 6.78482 28.8898 6.78482 29.3487C6.78482 29.8075 7.15689 30.1796 7.61577 30.1796Z" fill="#C4F2D0"/>
<path d="M7.61577 37.4855H10.9326C11.3915 37.4855 11.7635 37.1135 11.7635 36.6546C11.7635 36.1957 11.3916 35.8236 10.9326 35.8236H7.61577C7.15689 35.8236 6.78482 36.1957 6.78482 36.6546C6.78482 37.1136 7.15689 37.4855 7.61577 37.4855Z" fill="#C4F2D0"/>
<path d="M7.61577 44.7913H10.9326C11.3915 44.7913 11.7635 44.4194 11.7635 43.9604C11.7635 43.5014 11.3916 43.1295 10.9326 43.1295H7.61577C7.15689 43.1295 6.78482 43.5014 6.78482 43.9604C6.78482 44.4194 7.15689 44.7913 7.61577 44.7913Z" fill="#C4F2D0"/>
</svg>
