<svg width="66" height="53" viewBox="0 0 66 53" fill="none" xmlns="http://www.w3.org/2000/svg">
<path d="M65.2934 29.1355C64.9658 28.7224 64.3659 28.6534 63.9528 28.9807L62.0814 30.4647L46.9559 10.6055L55.6028 5.0558C56.0462 4.77118 56.1749 4.1811 55.8903 3.73765C55.6058 3.29421 55.0157 3.16548 54.5723 3.45011L45.0554 9.55843C44.5938 9.85474 44.4788 10.5023 44.8117 10.9393L46.5437 13.2134L45.3121 14.1561L40.4225 12.5407C40.3269 12.5094 40.224 12.4926 40.1232 12.4926H28.9295C28.4918 12.4926 28.1102 12.7905 28.004 13.2152L27.3741 15.7347L25.7841 15.0653C25.6323 15.0013 25.4663 14.9779 25.3031 14.997L20.8803 15.5149L19.3776 14.6425L20.807 12.1669C21.0667 11.7168 20.9075 11.1234 20.4578 10.8638L1.93115 0.167112C1.4745 -0.0964418 0.89115 0.0599633 0.627977 0.516231C0.364551 0.972499 0.520829 1.55597 0.977097 1.8194L15.4965 10.2022L2.96556 31.9067L1.93115 31.3095C1.4745 31.0458 0.89115 31.2023 0.627977 31.6586C0.364551 32.1149 0.520829 32.6983 0.977097 32.9618L6.01851 35.8725C6.46907 36.1325 7.06219 35.9731 7.32168 35.5234L8.05115 34.26L10.1092 35.3576C9.43785 36.659 9.50399 38.2835 10.4195 39.5487C11.2021 40.6302 12.4282 41.2052 13.6711 41.2052C14.0858 41.2052 14.5024 41.1403 14.9051 41.0095C14.9076 41.8614 15.1784 42.6802 15.6933 43.3641C16.4752 44.4027 17.6836 44.9531 18.9047 44.9531C19.3127 44.9531 19.7223 44.8915 20.1177 44.7662C20.1284 45.5625 20.3743 46.363 20.8755 47.0557C21.5029 47.9228 22.4304 48.4937 23.4871 48.6631C23.7019 48.6977 23.9168 48.7147 24.1302 48.7147C24.5444 48.7147 24.9529 48.6501 25.3436 48.5246C25.3549 49.3416 25.6148 50.1339 26.1037 50.8094C26.7311 51.6764 27.6586 52.2474 28.7152 52.4169C28.93 52.4513 29.145 52.4684 29.3584 52.4683C30.1949 52.4683 31.0079 52.2066 31.6986 51.7067L33.9243 50.0962C34.4059 49.7478 34.7945 49.3077 35.0749 48.8051L38.9905 50.9393C39.5872 51.2645 40.2415 51.4298 40.9027 51.4298C41.2826 51.4298 41.6651 51.3751 42.0398 51.2648C43.0664 50.9624 43.914 50.2785 44.4261 49.3387C44.8254 48.6061 44.9827 47.7865 44.8897 46.9745C45.1293 47.0186 45.3704 47.0404 45.6105 47.0404C47.0308 47.0403 48.4091 46.2843 49.1354 44.9518C49.5441 44.2019 49.6864 43.3777 49.5965 42.5874C49.8367 42.6317 50.0785 42.6536 50.3194 42.6536C51.7398 42.6535 53.1182 41.8975 53.8443 40.565C54.2434 39.833 54.4007 39.0139 54.3081 38.2024C54.5461 38.2466 54.7873 38.2693 55.0298 38.2693C55.4099 38.2693 55.7923 38.2146 56.1669 38.1042C57.1936 37.8018 58.0411 37.1179 58.5534 36.1781C59.0656 35.2384 59.1814 34.1555 58.879 33.1287C58.8064 32.8819 58.7111 32.6459 58.5962 32.422L60.2695 31.2342L61.1535 32.3948C61.4724 32.8135 62.0922 32.8917 62.5053 32.5643L65.1388 30.4758C65.5515 30.1484 65.6208 29.5484 65.2934 29.1355ZM6.14648 33.7433L4.61797 32.8607L17.149 11.1563L18.6775 12.0388L6.14648 33.7433ZM14.8958 38.9001C13.9585 39.5787 12.6437 39.3679 11.9652 38.4302C11.2869 37.4927 11.4978 36.1779 12.4353 35.4994L19.184 30.6164C19.5589 30.3453 19.9902 30.214 20.417 30.214C21.0453 30.214 21.664 30.4982 22.0789 31.0384C22.7901 31.9647 22.5898 33.3327 21.6451 34.0169L14.8958 38.9001ZM20.1238 42.6538C19.2039 43.3195 17.9 43.1233 17.2175 42.2166C16.5104 41.2775 16.7827 39.8901 17.7187 39.2128L22.7631 35.563C22.9466 35.4406 23.1164 35.3118 23.322 35.2246C23.6146 35.1003 23.9351 35.0439 24.2526 35.0616C24.8602 35.0953 25.4291 35.4009 25.7992 35.8828C26.5104 36.8089 26.3102 38.1771 25.3655 38.8613L20.1238 42.6538ZM25.3519 46.4073C24.8978 46.7361 24.3428 46.8683 23.7892 46.7793C23.2357 46.6906 22.7498 46.3915 22.4212 45.9372C21.7431 45 21.9535 43.6862 22.8899 43.0075C22.8899 43.0075 26.4842 40.4068 26.4845 40.4065L26.6247 40.3051C27.5513 39.6348 28.8229 39.8201 29.5196 40.7271C30.2309 41.6536 30.0303 43.022 29.0852 43.7059L25.3519 46.4073ZM33.6522 47.1528C33.5698 47.7189 33.269 48.2151 32.8056 48.5504L30.5799 50.1609C29.6526 50.832 28.3193 50.6172 27.6492 49.6909C26.9761 48.7608 27.1955 47.4339 28.1192 46.7603L30.2037 45.2521L30.345 45.1497C31.2583 44.4891 32.5539 44.6785 33.2398 45.5717C33.5883 46.0253 33.7347 46.5868 33.6522 47.1528ZM56.878 35.2648C56.331 36.2685 55.036 36.6513 54.0306 36.1032L43.0008 30.0912C42.5379 29.8392 41.9587 30.0097 41.7065 30.4724C41.4544 30.935 41.6249 31.5144 42.0875 31.7666L51.3304 36.8045C52.3467 37.3584 52.7226 38.6357 52.1689 39.6518C51.6151 40.6678 50.3378 41.0442 49.3215 40.4902L39.9433 35.3784C39.4807 35.1263 38.9013 35.2969 38.6491 35.7595C38.397 36.2222 38.5675 36.8016 39.0302 37.0538L46.6229 41.1924C47.6379 41.7468 48.0133 43.0231 47.4599 44.0388C46.913 45.0423 45.6181 45.4253 44.6125 44.8772L36.6635 40.5444C36.2005 40.2924 35.6213 40.4629 35.3692 40.9255C35.1171 41.3881 35.2876 41.9675 35.7502 42.2198L41.9122 45.5784C42.916 46.1255 43.2986 47.4204 42.7506 48.4259C42.2037 49.4297 40.9088 49.8121 39.9034 49.2641L35.5812 46.9083C35.5964 46.0082 35.3112 45.1364 34.7531 44.4097C34.0036 43.4337 32.9055 42.8954 31.7731 42.8405C31.791 42.7558 31.8074 42.6703 31.82 42.5839C31.9774 41.5034 31.698 40.4314 31.0329 39.5653C30.2832 38.5895 29.1852 38.0512 28.0528 37.9962C28.0707 37.9115 28.0871 37.8261 28.0996 37.7395C28.2571 36.6589 27.9776 35.587 27.3125 34.721C26.5629 33.7449 25.4649 33.2068 24.3324 33.1518C24.3503 33.0671 24.3667 32.9817 24.3793 32.8952C24.5367 31.8146 24.2573 30.7426 23.5922 29.8767C22.2622 28.1448 19.8343 27.7911 18.0656 29.0712L11.4078 33.8878L9.00558 32.6066L18.4234 16.2945L20.1967 17.3241C20.3751 17.4277 20.5824 17.4704 20.7867 17.4466L25.2752 16.9209L26.9056 17.6075L25.9686 21.3559C25.9498 21.4315 25.9402 21.5092 25.9402 21.5873V29.7282C25.9402 32.4986 28.1942 34.7526 30.9646 34.7526C33.7351 34.7526 35.989 32.4985 35.989 29.7282V21.8609L36.1624 21.5835L56.0394 32.4175C57.043 32.9646 57.4261 34.2591 56.878 35.2648ZM57.3331 30.9784C57.2114 30.8936 57.0849 30.8141 56.9528 30.7421L37.1757 19.9623L37.9095 18.7884C38.1887 18.3415 38.0528 17.753 37.606 17.4738C37.1596 17.1948 36.5705 17.3303 36.2914 17.7772L34.2261 21.0817C34.1315 21.2332 34.0811 21.4084 34.0811 21.5873V29.7282C34.0811 31.4465 32.6833 32.8446 30.9647 32.8446C29.2461 32.8446 27.8483 31.4466 27.8483 29.7282V21.7048L29.6742 14.4005H39.9696L45.1923 16.1259C45.4891 16.2241 45.8232 16.1676 46.0713 15.9777L47.6996 14.7312L59.1124 29.7156L57.3331 30.9784Z" fill="#C4F2D0"/>
</svg>
