<svg width="56" height="63" viewBox="0 0 56 63" fill="none" xmlns="http://www.w3.org/2000/svg">
<path d="M37.3239 17.5287H7.87753C7.37792 17.5287 6.97296 17.9336 6.97296 18.4332C6.97296 18.9328 7.37792 19.3378 7.87753 19.3378H37.324C37.8236 19.3378 38.2286 18.9328 38.2286 18.4332C38.2286 17.9336 37.8235 17.5287 37.3239 17.5287Z" fill="#C4F2D0"/>
<path d="M7.87753 13.0631H22.6007C23.1003 13.0631 23.5052 12.6582 23.5052 12.1586C23.5052 11.6589 23.1003 11.254 22.6007 11.254H7.87753C7.37792 11.254 6.97296 11.6589 6.97296 12.1586C6.97296 12.6583 7.37792 13.0631 7.87753 13.0631Z" fill="#C4F2D0"/>
<path d="M37.3239 23.0882H7.87753C7.37792 23.0882 6.97296 23.4932 6.97296 23.9928C6.97296 24.4924 7.37792 24.8973 7.87753 24.8973H37.324C37.8236 24.8973 38.2286 24.4924 38.2286 23.9928C38.2285 23.4932 37.8235 23.0882 37.3239 23.0882Z" fill="#C4F2D0"/>
<path d="M14.5853 56.1835H5.16165C3.61492 56.1835 2.35643 54.9251 2.35643 53.3784V5.59312C2.35643 4.04639 3.61492 2.7879 5.16165 2.7879H32.3102C32.3979 2.7879 32.4842 2.79594 32.5696 2.80747V8.4489C32.5696 10.9933 34.6396 13.0631 37.1839 13.0631H42.8252C42.8368 13.1486 42.8448 13.235 42.8448 13.3227V28.7264C42.8448 29.226 43.2497 29.631 43.7493 29.631C44.2489 29.631 44.6539 29.226 44.6539 28.7264V13.3228C44.6539 12.3305 44.2674 11.3976 43.5658 10.6959L34.9369 2.06696C34.2353 1.36535 33.3025 0.978882 32.3102 0.978882H5.16165C2.61728 0.978882 0.547413 3.04887 0.547413 5.59312V53.3784C0.547413 55.9226 2.6174 57.9925 5.16165 57.9925H14.5853C15.0849 57.9925 15.4898 57.5875 15.4898 57.0879C15.4898 56.5883 15.0849 56.1835 14.5853 56.1835ZM41.5656 11.2541H37.184C35.6373 11.2541 34.3788 9.99562 34.3788 8.4489V4.06729L41.5656 11.2541Z" fill="#C4F2D0"/>
<path d="M54.8585 45.262L47.1942 32.3252C46.6356 31.382 45.42 31.0702 44.4763 31.6292L42.612 32.7338C41.1649 33.591 40.5533 35.3258 41.0501 36.8632C40.422 37.0908 39.7334 37.0872 39.0993 36.842C37.6274 36.3789 36.5083 35.4474 34.6602 35.9148C31.522 36.7138 31.6174 36.6738 31.3335 36.7711C29.496 35.7249 28.3915 35.4136 26.4409 36.1682L24.7021 36.8404C23.8971 37.1514 23.01 37.0777 22.2662 36.6369L21.7917 36.3572C22.0232 34.9699 21.408 33.5058 20.1052 32.734C20.1052 32.734 20.1051 32.734 20.105 32.7339L18.2409 31.6295C17.2998 31.0721 16.0806 31.3841 15.5231 32.3252L7.85853 45.2621C7.29996 46.2051 7.61077 47.4211 8.55425 47.9799L10.4184 49.0843C10.9825 49.4186 11.6024 49.5775 12.2149 49.5775C12.8979 49.5775 13.5713 49.3795 14.147 49.0068L14.5355 49.236L13.7153 50.3785C12.7378 51.7402 13.0484 53.6336 14.4103 54.6112C15.0401 55.0632 15.8313 55.2697 16.6495 55.1412C16.7793 55.9001 17.1951 56.6103 17.8683 57.0938C18.5007 57.5478 19.2883 57.7545 20.1079 57.6254C20.2381 58.3837 20.6536 59.0933 21.3265 59.5765C22.2309 60.2256 23.3552 60.3006 24.2921 59.9005C24.4971 60.433 24.8534 60.9139 25.3505 61.2708C26.6485 62.2024 28.4365 61.9594 29.4451 60.7525L31.6248 62.0437C33.0663 62.898 34.9263 62.4232 35.781 60.98C35.9996 60.6111 36.1352 60.209 36.1848 59.7958L36.1897 59.7988C37.6291 60.6512 39.4932 60.1739 40.3459 58.7349C40.5928 58.3181 40.7282 57.8659 40.7611 57.4128C42.0298 57.7318 43.4124 57.1989 44.1126 56.0172C44.3423 55.6295 44.4755 55.2107 44.5194 54.7893C45.8791 55.3229 47.4683 54.8072 48.2362 53.5111C48.6493 52.8139 48.7661 51.9978 48.5652 51.2127C48.4503 50.7635 48.2389 50.3558 47.9487 50.0115L49.1502 49.3095C50.1666 49.7267 51.3265 49.66 52.2985 49.0842L54.1624 47.9798C55.1059 47.4214 55.4175 46.2056 54.8585 45.262ZM11.3405 47.528L9.47635 46.4235C9.39349 46.3744 9.36598 46.267 9.41498 46.1841L17.0796 33.2469C17.1289 33.1637 17.2366 33.1367 17.319 33.1857L19.183 34.29C20.0114 34.7808 20.2705 35.8432 19.7887 36.6564L13.7069 46.9222C13.2214 47.7418 12.16 48.0133 11.3405 47.528ZM15.4652 53.1416C14.9159 52.7472 14.7903 51.9831 15.1849 51.4335L16.3906 49.7541C16.7746 49.2191 17.54 49.0727 18.0986 49.4737C18.6468 49.8672 18.7726 50.6333 18.3791 51.1816L17.1733 52.861C16.7798 53.4095 16.0132 53.5349 15.4652 53.1416ZM18.9234 55.6243C18.3752 55.2306 18.2494 54.4643 18.643 53.9162L19.8486 52.2369C19.8486 52.2369 19.8486 52.2369 19.8486 52.2368C19.8486 52.2368 19.8486 52.2366 19.8487 52.2366L21.1793 50.3833C21.37 50.1178 21.6526 49.9422 21.9752 49.8893C22.0422 49.8783 22.1093 49.8729 22.176 49.8729C22.4299 49.8729 22.6769 49.9519 22.8873 50.1029C23.1527 50.2936 23.3283 50.5761 23.3811 50.8986C23.4341 51.2213 23.3583 51.5452 23.1676 51.8108L20.6313 55.3438C20.2371 55.8932 19.473 56.019 18.9234 55.6243ZM22.3816 58.1068C21.8336 57.7134 21.7077 56.9477 22.1006 56.3995C22.1007 56.3993 22.1009 56.3991 22.101 56.3988L24.6374 52.8659C25.0307 52.3178 25.7974 52.192 26.3454 52.5854C26.8936 52.979 27.0194 53.7452 26.6258 54.2934L25.4989 55.8632C25.4989 55.8632 25.4989 55.8632 25.4988 55.8633L24.0895 57.8264C23.6959 58.3747 22.9299 58.5006 22.3816 58.1068ZM26.4055 59.8012C25.8577 59.4077 25.7317 58.6424 26.1243 58.0941L26.9684 56.9184C27.3619 56.37 28.1285 56.2446 28.6765 56.6379C29.2246 57.0314 29.3504 57.7977 28.9569 58.346L28.1134 59.5206C27.72 60.069 26.9535 60.1948 26.4055 59.8012ZM46.6801 52.5891C46.336 53.17 45.5837 53.3627 45.0026 53.0186C44.0188 52.4358 37.6724 48.6759 36.9958 48.275C36.5658 48.0204 36.0111 48.1622 35.7565 48.5921C35.5019 49.0219 35.6437 49.5767 36.0736 49.8313L42.1268 53.4175L42.1269 53.4177C42.7081 53.7619 42.9019 54.5119 42.5564 55.0953C42.2121 55.6764 41.4594 55.8687 40.8786 55.5249C38.6398 54.1985 36.8219 53.1215 34.8222 51.9368C34.3921 51.6821 33.8375 51.824 33.5829 52.2538C33.3283 52.6836 33.4701 53.2385 33.8999 53.4931L38.3601 56.1355L38.3611 56.1361C38.9426 56.4813 39.1345 57.231 38.7897 57.8132C38.4454 58.3944 37.693 58.5869 37.1118 58.2427L34.7182 56.8247C34.7179 56.8246 34.7176 56.8244 34.7173 56.8242C34.7171 56.8241 34.7168 56.824 34.7166 56.8238L32.9698 55.7889C32.5398 55.5341 31.9851 55.676 31.7305 56.1059C31.4759 56.5357 31.6177 57.0906 32.0476 57.3452L33.7947 58.3803C33.795 58.3804 33.7952 58.3807 33.7955 58.3808C34.3766 58.725 34.5704 59.4749 34.2249 60.0583C33.8806 60.6394 33.1282 60.832 32.547 60.4878L30.5089 59.2804C31.3826 57.9322 31.0503 56.1154 29.7315 55.1688C29.3442 54.8909 28.9129 54.7178 28.4718 54.6435C28.9397 53.3924 28.5363 51.9318 27.4003 51.1164C26.7278 50.6333 25.9225 50.4665 25.1625 50.5857C25.0273 49.7948 24.5948 49.1021 23.9424 48.6339C22.7152 47.7532 21.0475 47.9224 20.0175 48.9645C19.8082 48.5969 19.5192 48.2671 19.1536 48.0047C18.1339 47.2728 16.8099 47.266 15.8004 47.8824L15.386 47.6378L21.0749 38.035L21.3457 38.1947C22.5419 38.9033 24.0016 39.051 25.3543 38.5278L27.0931 37.8557C28.0881 37.4711 28.6368 37.446 29.621 37.9104C28.9771 38.6339 28.5948 39.5837 28.5948 40.6074V44.6181C28.5948 45.6833 29.4608 46.5505 30.5252 46.5513H30.5279C31.5955 46.5513 32.5995 46.1356 33.3548 45.3808C33.7951 44.9408 34.1201 44.4162 34.3149 43.8436C35.4828 44.5352 45.1322 50.2493 46.2509 50.9121C46.5323 51.0788 46.7319 51.345 46.813 51.6619C46.894 51.9783 46.8468 52.3077 46.6801 52.5891ZM53.2408 46.4235L51.3765 47.528C50.557 48.0132 49.4956 47.7414 49.0104 46.9224L46.1598 42.1107C45.905 41.6809 45.35 41.539 44.9205 41.7934C44.4907 42.048 44.3487 42.6028 44.6032 43.0327L47.4538 47.8445C47.5075 47.935 47.5657 48.0211 47.626 48.1051L46.8335 48.568C46.6733 48.6629 46.5192 48.7674 46.3719 48.8809L34.0832 41.6036C33.4812 41.2473 32.7178 41.6817 32.7178 42.3819C32.7083 42.4359 32.8113 43.3657 32.0759 44.1008C31.6623 44.5141 31.1125 44.7418 30.5277 44.7418C30.5273 44.7418 30.5268 44.7418 30.5263 44.7418C30.4587 44.7418 30.4037 44.686 30.4037 44.6176V40.6069C30.4037 39.5592 31.1245 38.6753 32.0993 38.4285L35.1037 37.6682C36.1938 37.3927 36.81 37.9748 38.4422 38.5272C39.5753 38.9656 40.8074 38.9386 41.901 38.4715L42.447 39.3931C42.7017 39.8232 43.2566 39.9649 43.6863 39.7104C44.1161 39.4558 44.258 38.901 44.0036 38.4711L42.9282 36.6561C42.4417 35.8349 42.7128 34.7766 43.5339 34.2899L45.398 33.1856C45.4794 33.1372 45.5871 33.1619 45.6376 33.2469L53.3019 46.1839C53.3514 46.2673 53.3241 46.3741 53.2408 46.4235Z" fill="#C4F2D0"/>
</svg>
